<svg width="150" height="33" viewBox="0 0 150 33" fill="none" xmlns="http://www.w3.org/2000/svg">
<path fill-rule="evenodd" clip-rule="evenodd" d="M20.9098 22.1789C22.6829 21.137 23.8844 19.1232 23.8844 16.8098C23.8844 13.4273 21.3159 10.6853 18.1474 10.6853C14.9789 10.6853 12.4104 13.4273 12.4104 16.8098C12.4104 19.1232 13.612 21.1371 15.3852 22.179V22.7967C15.3852 24.3223 16.6219 25.559 18.1475 25.559C19.673 25.559 20.9098 24.3223 20.9098 22.7967V22.1789Z" fill="#FFE37C"/>
<path fill-rule="evenodd" clip-rule="evenodd" d="M19.6506 22.1789C21.1611 21.137 22.1846 19.1232 22.1846 16.8098C22.1846 13.4273 19.9966 10.6853 17.2975 10.6853C14.5984 10.6853 12.4104 13.4273 12.4104 16.8098C12.4104 19.1233 13.434 21.1371 14.9445 22.179V23.2059C14.9445 24.5055 15.998 25.559 17.2976 25.559C18.5971 25.559 19.6506 24.5055 19.6506 23.2059V22.1789Z" fill="#FFEEB3"/>
<path d="M14.5365 23.8592C14.5365 23.3898 14.4891 23.0093 14.9896 23.0093C14.9896 23.0093 16.1225 23.6467 17.935 23.6467C19.7475 23.6467 20.8804 23.0093 20.8804 23.0093C21.3809 23.0093 21.3335 23.3898 21.3335 23.8592V25.984C21.3335 26.4534 20.9278 26.834 20.4272 26.834H15.4427C14.9422 26.834 14.5365 26.4534 14.5365 25.984V23.8592Z" fill="#C1C0C0"/>
<path d="M14.5365 23.7648C14.5365 23.3475 14.4891 23.0093 14.9896 23.0093C14.9896 23.0093 16.1225 23.5759 17.935 23.5759C19.7475 23.5759 20.8804 23.0093 20.8804 23.0093C21.3809 23.0093 21.3335 23.3475 21.3335 23.7648V25.6535C21.3335 26.0707 20.9278 26.409 20.4272 26.409H15.4427C14.9422 26.409 14.5365 26.0707 14.5365 25.6535V23.7648Z" fill="#D9D9D9"/>
<path d="M7.31091 12.1729L10.7106 13.6602" stroke="#FFE37C"/>
<path d="M10.923 7.71069L13.0478 9.83551" stroke="#FFE37C"/>
<path d="M18.3599 5.79834V8.77309" stroke="#FFE37C"/>
<path d="M24.5221 7.9231L22.8223 9.83543" stroke="#FFE37C"/>
<path d="M27.9215 11.748L24.9468 13.2354" stroke="#FFE37C"/>
<path d="M90.2582 14.537L90.0176 16.1159H85.7142L85.9548 14.537H90.2582ZM85.7732 22.1158L87.0216 13.9893C87.1033 13.44 87.2697 12.9844 87.5209 12.6225C87.7751 12.2607 88.0883 11.9893 88.4606 11.8084C88.8358 11.6275 89.2414 11.537 89.6771 11.537C89.9737 11.537 90.2415 11.5617 90.4806 11.611C90.7227 11.6604 90.8982 11.7048 91.0072 11.7443L90.4307 13.3232C90.358 13.2969 90.2688 13.2722 90.1628 13.2492C90.0569 13.2261 89.945 13.2146 89.8269 13.2146C89.5455 13.2146 89.3382 13.287 89.205 13.4317C89.0749 13.5732 88.9871 13.7722 88.9418 14.0288L87.7025 22.1158H85.7732Z" fill="#926343"/>
<path d="M95.239 18.8889L95.9063 14.537H97.8401L96.678 22.1158H94.8214L95.0302 20.7392H94.9576C94.7427 21.1833 94.4295 21.5402 94.0179 21.8099C93.6064 22.0796 93.1388 22.2145 92.6153 22.2145C92.1492 22.2145 91.7558 22.0994 91.435 21.8691C91.1173 21.6388 90.8918 21.3115 90.7586 20.8872C90.6255 20.4629 90.6028 19.9547 90.6906 19.3626L91.435 14.537H93.3688L92.6879 18.9876C92.6243 19.4349 92.6818 19.7885 92.8604 20.0484C93.0389 20.3083 93.3113 20.4382 93.6775 20.4382C93.9105 20.4382 94.136 20.3806 94.3539 20.2655C94.5748 20.1471 94.7654 19.9728 94.9258 19.7425C95.0862 19.5122 95.1906 19.2277 95.239 18.8889Z" fill="#926343"/>
<path d="M100.84 17.7343L100.168 22.1158H98.2385L99.4005 14.537H101.239L101.039 15.8741H101.116C101.337 15.4301 101.649 15.0797 102.052 14.8232C102.457 14.5666 102.919 14.4383 103.436 14.4383C103.92 14.4383 104.324 14.5534 104.648 14.7837C104.975 15.0139 105.205 15.3412 105.338 15.7656C105.474 16.1899 105.497 16.6981 105.406 17.2902L104.662 22.1158H102.728L103.413 17.6652C103.483 17.2014 103.429 16.8396 103.25 16.5797C103.074 16.3166 102.791 16.185 102.401 16.185C102.141 16.185 101.902 16.2458 101.684 16.3675C101.466 16.4893 101.283 16.6669 101.135 16.9004C100.989 17.1307 100.891 17.4086 100.84 17.7343Z" fill="#926343"/>
<path d="M113.312 24.9579L113.924 20.902H113.865C113.747 21.1125 113.59 21.3214 113.393 21.5287C113.197 21.7326 112.956 21.902 112.671 22.0369C112.39 22.1717 112.062 22.2392 111.686 22.2392C111.157 22.2392 110.701 22.0911 110.32 21.7951C109.939 21.4958 109.666 21.0566 109.503 20.4777C109.343 19.8955 109.326 19.1816 109.453 18.3363C109.586 17.4679 109.825 16.7458 110.17 16.1702C110.515 15.5912 110.924 15.1587 111.396 14.8725C111.868 14.583 112.358 14.4383 112.867 14.4383C113.257 14.4383 113.572 14.5107 113.811 14.6554C114.053 14.7968 114.239 14.9745 114.369 15.1883C114.499 15.3988 114.59 15.606 114.642 15.81H114.723L114.928 14.537H116.834L115.245 24.9579H113.312ZM112.553 20.5665C112.865 20.5665 113.144 20.4744 113.389 20.2902C113.637 20.1027 113.843 19.8412 114.006 19.5057C114.173 19.1701 114.291 18.777 114.36 18.3264C114.43 17.8757 114.431 17.4843 114.365 17.1521C114.301 16.8198 114.174 16.5633 113.983 16.3823C113.796 16.2014 113.546 16.111 113.234 16.111C112.914 16.111 112.631 16.2047 112.386 16.3922C112.14 16.5797 111.936 16.8396 111.773 17.1718C111.609 17.504 111.494 17.8889 111.428 18.3264C111.361 18.7672 111.358 19.157 111.419 19.4958C111.482 19.8313 111.608 20.0945 111.795 20.2852C111.986 20.4727 112.239 20.5665 112.553 20.5665Z" fill="#926343"/>
<path d="M122.191 18.8889L122.858 14.537H124.792L123.63 22.1158H121.773L121.982 20.7392H121.909C121.694 21.1833 121.381 21.5402 120.97 21.8099C120.558 22.0796 120.09 22.2145 119.567 22.2145C119.101 22.2145 118.707 22.0994 118.387 21.8691C118.069 21.6388 117.843 21.3115 117.71 20.8872C117.577 20.4629 117.554 19.9547 117.642 19.3626L118.387 14.537H120.32L119.639 18.9876C119.576 19.4349 119.633 19.7885 119.812 20.0484C119.991 20.3083 120.263 20.4382 120.629 20.4382C120.862 20.4382 121.088 20.3806 121.305 20.2655C121.526 20.1471 121.717 19.9728 121.877 19.7425C122.038 19.5122 122.142 19.2277 122.191 18.8889Z" fill="#926343"/>
<path d="M125.176 22.1158L126.339 14.537H128.272L127.11 22.1158H125.176ZM127.505 13.5501C127.218 13.5501 126.98 13.4465 126.792 13.2393C126.608 13.0288 126.532 12.7788 126.565 12.4893C126.599 12.1933 126.729 11.9433 126.956 11.7393C127.183 11.5321 127.44 11.4285 127.728 11.4285C128.015 11.4285 128.25 11.5321 128.431 11.7393C128.613 11.9433 128.688 12.1933 128.658 12.4893C128.628 12.7788 128.499 13.0288 128.272 13.2393C128.048 13.4465 127.793 13.5501 127.505 13.5501Z" fill="#926343"/>
<path d="M128.637 22.1158L128.823 20.8625L132.931 16.2689L132.949 16.2146H129.653L129.912 14.537H135.541L135.341 15.9037L131.451 20.3839L131.433 20.4382H134.756L134.506 22.1158H128.637Z" fill="#926343"/>
<path d="M139.832 12.0107L138.579 19.0863H136.927L137.821 12.0107H139.832ZM137.385 22.2441C137.079 22.2441 136.828 22.129 136.632 21.8987C136.438 21.6685 136.35 21.3889 136.368 21.0599C136.389 20.7343 136.515 20.4596 136.745 20.2359C136.978 20.0089 137.246 19.8955 137.549 19.8955C137.839 19.8955 138.084 20.0089 138.284 20.2359C138.484 20.4629 138.571 20.7375 138.547 21.0599C138.532 21.277 138.467 21.476 138.352 21.6569C138.24 21.8346 138.098 21.9777 137.925 22.0862C137.753 22.1915 137.573 22.2441 137.385 22.2441Z" fill="#926343"/>
<rect x="0.5" y="0.5" width="149" height="31.8571" rx="13.5" stroke="#926343"/>
<path d="M31.115 14.2324H32.9476L34.8831 18.9545H34.9654L36.901 14.2324H38.7335V21.2607H37.2922V16.6861H37.2338L35.415 21.2264H34.4335L32.6147 16.669H32.5563V21.2607H31.115V14.2324Z" fill="#926343"/>
<path d="M41.8457 21.2607H40.2533L42.6796 14.2324H44.5945L47.0174 21.2607H45.425L43.6645 15.8385H43.6096L41.8457 21.2607ZM41.7462 18.4981H45.5074V19.6581H41.7462V18.4981Z" fill="#926343"/>
<path d="M50.0257 14.2324V21.2607H48.5398V14.2324H50.0257Z" fill="#926343"/>
<path d="M57.8034 14.2324V21.2607H56.5199L53.4622 16.8371H53.4107V21.2607H51.9248V14.2324H53.2288L56.2625 18.6525H56.3243V14.2324H57.8034Z" fill="#926343"/>
<path d="M59.7076 21.2607V14.2324H61.1935V17.3313H61.2862L63.8154 14.2324H65.5965L62.9883 17.3794L65.6274 21.2607H63.8497L61.9245 18.3711L61.1935 19.2634V21.2607H59.7076Z" fill="#926343"/>
<path d="M68.2582 21.2607H66.6659L69.0922 14.2324H71.0071L73.4299 21.2607H71.8376L70.0771 15.8385H70.0222L68.2582 21.2607ZM68.1587 18.4981H71.9199V19.6581H68.1587V18.4981Z" fill="#926343"/>
<path d="M80.8309 14.2324V21.2607H79.5475L76.4898 16.8371H76.4383V21.2607H74.9523V14.2324H76.2564L79.2901 18.6525H79.3519V14.2324H80.8309Z" fill="#926343"/>
</svg>
