<svg width="361" height="199" viewBox="0 0 361 199" fill="none" xmlns="http://www.w3.org/2000/svg">
<path d="M286.697 45.2431C287.819 45.853 288.233 47.257 287.623 48.3786C287.011 49.5002 285.607 49.9136 284.485 49.3037C284.473 49.2976 280.431 47.0421 278.267 50.3721C277.32 51.8334 276.892 53.5997 277.111 55.1777C277.197 55.7937 277.387 56.375 277.688 56.8826C277.972 57.3656 278.365 57.7872 278.871 58.1147C279.984 58.8372 281.679 59.1646 284.07 58.831C285.777 58.5936 287.266 57.9796 288.511 57.1016C290.134 55.9554 291.35 54.3529 292.093 52.5436C292.846 50.7139 293.114 48.6733 292.836 46.6757C292.606 45.0363 292.005 43.4276 290.989 41.9888C290.498 41.295 289.96 40.683 289.385 40.1611C287.391 38.3539 284.808 37.3899 282.013 37.3756C279.108 37.3613 275.956 38.3621 272.94 40.4906C271.638 41.4096 270.375 42.523 269.182 43.839C262.497 51.2071 258.158 50.3864 254.03 49.6025C252.604 49.3344 251.214 49.0704 249.89 49.4285C246.052 50.4723 243.081 53.5956 240.06 56.77C239.206 57.6665 238.349 58.567 237.432 59.4675C237.352 59.5453 237.292 59.6026 237.254 59.6395C234.808 61.9563 231.382 63.5568 228.275 64.2609C226.65 64.6293 225.061 64.748 223.662 64.5986C223.981 68.7554 226.251 76.0478 238.064 77.1816C243.023 77.6585 246.754 77.8345 249.732 77.9778C258.592 78.3994 261.181 78.5243 269.919 84.5865C274.645 87.8633 279.293 89.1036 283.589 88.8826C288.525 88.6288 293.063 86.4511 296.751 83.2235C297.713 82.3823 299.174 82.4805 300.015 83.4404C300.854 84.4023 300.758 85.8637 299.796 86.7049C295.369 90.5793 289.87 93.1949 283.824 93.506C278.558 93.7762 272.925 92.3026 267.291 88.3934C259.638 83.0822 257.348 82.9738 249.513 82.6013C246.513 82.458 242.749 82.2779 237.628 81.7867C217.047 79.8116 218.917 62.7504 219.14 61.1274C219.194 60.5973 219.427 60.0856 219.84 59.6886C220.761 58.8024 222.225 58.831 223.111 59.752L223.127 59.7684C223.623 60.2514 225.266 60.1982 227.26 59.7459C229.646 59.2056 232.247 58.0062 234.063 56.2849C234.124 56.2276 234.167 56.1867 234.188 56.1662C235.023 55.3455 235.866 54.4613 236.705 53.5792C240.182 49.9238 243.604 46.3278 248.676 44.9524C251.007 44.32 252.921 44.6823 254.882 45.0527C257.778 45.6012 260.821 46.1784 265.756 40.7383C267.209 39.1357 268.728 37.7952 270.275 36.7022C274.1 34.0026 278.191 32.7337 282.029 32.7521C285.975 32.7726 289.634 34.15 292.486 36.735C293.337 37.5086 294.107 38.3744 294.778 39.324C296.231 41.383 297.095 43.6896 297.422 46.0413C297.813 48.8473 297.432 51.7188 296.372 54.3037C295.302 56.9071 293.54 59.2219 291.176 60.89C289.356 62.1753 287.185 63.0718 284.704 63.4177C281.108 63.9191 278.349 63.2928 276.349 61.9932C275.214 61.2564 274.335 60.3128 273.699 59.2404C273.079 58.1945 272.694 57.0279 272.524 55.8122C272.154 53.1556 272.846 50.2288 274.389 47.8526C278.91 40.8898 286.675 45.2308 286.697 45.2431Z" fill="#9A705C" fill-opacity="0.5"/>
<path d="M312.736 79.0236C311.51 79.3879 310.218 78.69 309.854 77.4641C309.488 76.2381 310.186 74.9466 311.412 74.5803C311.43 74.5762 317.65 72.7833 315.276 65.3477C314.778 63.7881 314.087 62.7074 313.284 62.0013C312.521 61.3321 311.616 60.9862 310.667 60.8818C309.594 60.7651 308.456 60.933 307.361 61.2829C305.403 61.9072 303.638 63.0738 302.601 64.2547L302.596 64.2588L302.601 64.2629L302.488 64.3919C300.971 66.1991 299.138 69.7706 298.765 73.8742C298.403 77.8611 299.485 82.3475 303.771 86.1093C303.788 86.1236 303.894 86.2136 304.095 86.3815C304.418 86.6537 304.668 86.8584 304.848 86.9975C309.109 90.3296 312.846 91.1319 316.002 90.4769C319.199 89.8138 321.942 87.6566 324.085 85.1044C324.322 84.8199 324.498 84.607 324.613 84.4596C329.817 77.7997 333.377 77.46 342.269 76.6106C342.789 76.5615 343.344 76.5083 344.283 76.4141C347.767 76.0682 350.356 74.9384 352.237 73.5385C353.448 72.6359 354.363 71.6351 355.029 70.6731C350.413 70.5278 342.904 69.0153 338.256 61.4569C336.232 58.1679 334.846 55.0528 333.651 52.3635C331.547 47.6356 330.167 44.5328 326.5 44.9176C325.094 45.065 323.698 45.3044 322.388 45.5275C316.189 46.5898 311.629 47.3695 305.916 40.1427C304.682 38.5831 303.434 37.3285 302.189 36.4034C300.677 35.2818 299.205 34.6719 297.809 34.6269C296.475 34.5839 295.128 35.0649 293.798 36.1169C292.983 36.7595 292.171 37.6191 291.366 38.7039C290.605 39.7293 289.156 39.9442 288.13 39.1848C287.103 38.4235 286.888 36.9744 287.65 35.947C288.693 34.5429 289.79 33.3948 290.932 32.4922C293.163 30.73 295.525 29.9256 297.955 30.0054C300.325 30.0812 302.674 31.0001 304.944 32.6866C306.508 33.8491 308.047 35.3882 309.541 37.2794C313.542 42.3408 316.962 41.7555 321.608 40.9593C322.947 40.7301 324.373 40.4865 326.029 40.3126C333.027 39.5799 334.948 43.8984 337.875 50.4785C338.995 52.9959 340.292 55.9145 342.208 59.0275C347.624 67.8323 358.266 65.888 358.297 65.8819L358.299 65.888C358.586 65.8389 358.884 65.843 359.185 65.9085C360.432 66.1848 361.22 67.4189 360.946 68.6653C360.45 70.8942 358.686 74.5045 354.994 77.2532C352.517 79.0973 349.165 80.5791 344.738 81.0192C344.263 81.0662 343.471 81.142 342.703 81.2156C335.227 81.9299 332.235 82.2144 328.256 87.3045C328 87.6341 327.789 87.896 327.638 88.0782C324.905 91.3324 321.307 94.1036 316.944 95.0083C312.541 95.9231 307.496 94.9366 302.001 90.6406C301.639 90.3582 301.346 90.1228 301.123 89.9366C301.078 89.8997 300.945 89.7831 300.726 89.5907C295.1 84.652 293.681 78.731 294.16 73.4566C294.631 68.2949 296.985 63.7431 298.935 61.418C299.033 61.3014 299.095 61.2297 299.121 61.199L299.125 61.2031C300.658 59.4593 303.196 57.7606 305.965 56.8764C307.644 56.3402 309.426 56.0884 311.156 56.2788C313.01 56.4814 314.791 57.1711 316.33 58.5219C317.738 59.7561 318.907 61.5224 319.68 63.9518C323.499 75.9086 312.766 79.0134 312.736 79.0236Z" fill="#9A705C" fill-opacity="0.5"/>
<path d="M172.697 148.243C173.819 148.853 174.233 150.257 173.623 151.379C173.011 152.5 171.607 152.914 170.485 152.304C170.473 152.298 166.431 150.042 164.267 153.372C163.32 154.833 162.892 156.6 163.111 158.178C163.197 158.794 163.387 159.375 163.688 159.883C163.972 160.366 164.365 160.787 164.871 161.115C165.984 161.837 167.679 162.165 170.07 161.831C171.777 161.594 173.266 160.98 174.511 160.102C176.134 158.955 177.35 157.353 178.093 155.544C178.846 153.714 179.114 151.673 178.836 149.676C178.606 148.036 178.005 146.428 176.989 144.989C176.498 144.295 175.96 143.683 175.385 143.161C173.391 141.354 170.808 140.39 168.013 140.376C165.108 140.361 161.956 141.362 158.94 143.491C157.638 144.41 156.375 145.523 155.182 146.839C148.497 154.207 144.158 153.386 140.03 152.603C138.604 152.334 137.214 152.07 135.89 152.429C132.052 153.472 129.081 156.596 126.06 159.77C125.206 160.666 124.349 161.567 123.432 162.468C123.352 162.545 123.292 162.603 123.254 162.639C120.808 164.956 117.382 166.557 114.275 167.261C112.65 167.629 111.061 167.748 109.662 167.599C109.981 171.755 112.251 179.048 124.064 180.182C129.023 180.659 132.754 180.835 135.732 180.978C144.592 181.399 147.181 181.524 155.919 187.587C160.645 190.863 165.293 192.104 169.589 191.883C174.525 191.629 179.063 189.451 182.751 186.223C183.713 185.382 185.174 185.481 186.015 186.44C186.854 187.402 186.758 188.864 185.796 189.705C181.369 193.579 175.87 196.195 169.824 196.506C164.558 196.776 158.925 195.303 153.291 191.393C145.638 186.082 143.348 185.974 135.513 185.601C132.513 185.458 128.749 185.278 123.628 184.787C103.047 182.812 104.917 165.75 105.14 164.127C105.194 163.597 105.427 163.086 105.84 162.689C106.761 161.802 108.225 161.831 109.111 162.752L109.127 162.768C109.623 163.251 111.266 163.198 113.26 162.746C115.646 162.206 118.247 161.006 120.063 159.285C120.124 159.228 120.167 159.187 120.188 159.166C121.023 158.346 121.866 157.461 122.705 156.579C126.182 152.924 129.604 149.328 134.676 147.952C137.007 147.32 138.921 147.682 140.882 148.053C143.778 148.601 146.821 149.178 151.756 143.738C153.209 142.136 154.728 140.795 156.275 139.702C160.1 137.003 164.191 135.734 168.029 135.752C171.975 135.773 175.634 137.15 178.486 139.735C179.337 140.509 180.107 141.374 180.778 142.324C182.231 144.383 183.095 146.69 183.422 149.041C183.813 151.847 183.432 154.719 182.372 157.304C181.302 159.907 179.54 162.222 177.176 163.89C175.356 165.175 173.185 166.072 170.704 166.418C167.108 166.919 164.349 166.293 162.349 164.993C161.214 164.256 160.335 163.313 159.699 162.24C159.079 161.195 158.694 160.028 158.524 158.812C158.154 156.156 158.846 153.229 160.389 150.853C164.91 143.89 172.675 148.231 172.697 148.243Z" fill="#9A705C" fill-opacity="0.5"/>
<path d="M198.736 182.024C197.51 182.388 196.218 181.69 195.854 180.464C195.488 179.238 196.186 177.947 197.412 177.58C197.43 177.576 203.65 175.783 201.276 168.348C200.778 166.788 200.087 165.707 199.284 165.001C198.521 164.332 197.616 163.986 196.667 163.882C195.594 163.765 194.456 163.933 193.361 164.283C191.403 164.907 189.638 166.074 188.601 167.255L188.596 167.259L188.601 167.263L188.488 167.392C186.971 169.199 185.138 172.771 184.765 176.874C184.403 180.861 185.485 185.347 189.771 189.109C189.788 189.124 189.894 189.214 190.095 189.381C190.418 189.654 190.668 189.858 190.848 189.998C195.109 193.33 198.846 194.132 202.002 193.477C205.199 192.814 207.942 190.657 210.085 188.104C210.322 187.82 210.498 187.607 210.613 187.46C215.817 180.8 219.377 180.46 228.269 179.611C228.789 179.561 229.344 179.508 230.283 179.414C233.767 179.068 236.356 177.938 238.237 176.539C239.448 175.636 240.363 174.635 241.029 173.673C236.413 173.528 228.904 172.015 224.256 164.457C222.232 161.168 220.846 158.053 219.651 155.363C217.547 150.636 216.167 147.533 212.5 147.918C211.094 148.065 209.698 148.304 208.388 148.528C202.189 149.59 197.629 150.37 191.916 143.143C190.682 141.583 189.434 140.329 188.189 139.403C186.677 138.282 185.205 137.672 183.809 137.627C182.475 137.584 181.128 138.065 179.798 139.117C178.983 139.76 178.171 140.619 177.366 141.704C176.605 142.729 175.156 142.944 174.13 142.185C173.103 141.423 172.888 139.974 173.65 138.947C174.693 137.543 175.79 136.395 176.932 135.492C179.163 133.73 181.525 132.926 183.955 133.005C186.325 133.081 188.674 134 190.944 135.687C192.508 136.849 194.047 138.388 195.541 140.279C199.542 145.341 202.962 144.755 207.608 143.959C208.947 143.73 210.373 143.487 212.029 143.313C219.027 142.58 220.948 146.898 223.875 153.478C224.995 155.996 226.292 158.914 228.208 162.027C233.624 170.832 244.266 168.888 244.297 168.882L244.299 168.888C244.586 168.839 244.884 168.843 245.185 168.908C246.432 169.185 247.22 170.419 246.946 171.665C246.45 173.894 244.686 177.505 240.994 180.253C238.517 182.097 235.165 183.579 230.738 184.019C230.263 184.066 229.471 184.142 228.703 184.216C221.227 184.93 218.235 185.214 214.256 190.305C214 190.634 213.789 190.896 213.638 191.078C210.905 194.332 207.307 197.104 202.944 198.008C198.541 198.923 193.496 197.937 188.001 193.641C187.639 193.358 187.346 193.123 187.123 192.937C187.078 192.9 186.945 192.783 186.726 192.591C181.1 187.652 179.681 181.731 180.16 176.457C180.631 171.295 182.985 166.743 184.935 164.418C185.033 164.301 185.095 164.23 185.121 164.199L185.125 164.203C186.658 162.459 189.196 160.761 191.965 159.876C193.644 159.34 195.426 159.088 197.156 159.279C199.01 159.481 200.791 160.171 202.33 161.522C203.738 162.756 204.907 164.522 205.68 166.952C209.499 178.909 198.766 182.013 198.736 182.024Z" fill="#9A705C" fill-opacity="0.5"/>
<path d="M67.6975 15.2431C68.8191 15.853 69.2325 17.257 68.6226 18.3786C68.0106 19.5002 66.6066 19.9136 65.485 19.3037C65.4727 19.2976 61.4305 17.0421 59.2672 20.3721C58.3196 21.8334 57.8918 23.5997 58.1108 25.1777C58.1968 25.7937 58.3871 26.375 58.688 26.8826C58.9725 27.3656 59.3654 27.7872 59.871 28.1147C60.9844 28.8372 62.679 29.1646 65.0696 28.831C66.7765 28.5936 68.2665 27.9796 69.5109 27.1016C71.1339 25.9554 72.3496 24.3529 73.0926 22.5436C73.8458 20.7139 74.1139 18.6733 73.8355 16.6757C73.6063 15.0363 73.0046 13.4276 71.9894 11.9888C71.4982 11.295 70.9599 10.683 70.3848 10.1611C68.3913 8.35391 65.8084 7.38992 63.0126 7.3756C60.1084 7.36127 56.9565 8.36209 53.9397 10.4906C52.638 11.4096 51.3752 12.523 50.1819 13.839C43.4975 21.2071 39.1585 20.3864 35.0303 19.6025C33.6037 19.3344 32.2141 19.0704 30.8899 19.4285C27.0523 20.4723 24.0805 23.5956 21.0596 26.77C20.2061 27.6665 19.3486 28.567 18.4316 29.4675C18.3518 29.5453 18.2925 29.6026 18.2536 29.6395C15.8078 31.9563 12.3816 33.5568 9.27475 34.2609C7.64968 34.6293 6.06149 34.748 4.66155 34.5986C4.98083 38.7554 7.2506 46.0478 19.0641 47.1816C24.0232 47.6585 27.7543 47.8345 30.7322 47.9778C39.5924 48.3994 42.1814 48.5243 50.9188 54.5865C55.6446 57.8633 60.2926 59.1036 64.5886 58.8826C69.5252 58.6288 74.0627 56.4511 77.7508 53.2235C78.7128 52.3823 80.1741 52.4805 81.0153 53.4404C81.8544 54.4023 81.7582 55.8637 80.7963 56.7049C76.3693 60.5793 70.8699 63.1949 64.824 63.506C59.5578 63.7762 53.9253 62.3026 48.2908 58.3934C40.6382 53.0822 38.348 52.9738 30.5133 52.6013C27.5128 52.458 23.7489 52.2779 18.6281 51.7867C-1.95338 49.8116 -0.0826809 32.7504 0.140408 31.1274C0.193622 30.5973 0.426929 30.0856 0.84036 29.6886C1.76137 28.8024 3.22477 28.831 4.11098 29.752L4.12733 29.7684C4.62263 30.2514 6.26613 30.1982 8.25961 29.7459C10.646 29.2056 13.2474 28.0062 15.0628 26.2849C15.1242 26.2276 15.1672 26.1867 15.1876 26.1662C16.0227 25.3455 16.8659 24.4613 17.7051 23.5792C21.1824 19.9238 24.6045 16.3278 29.6762 14.9524C32.0073 14.32 33.921 14.6823 35.8817 15.0527C38.7778 15.6012 41.8212 16.1784 46.7558 10.7383C48.2089 9.13575 49.7276 7.79516 51.2749 6.70223C55.1001 4.00265 59.1914 2.7337 63.029 2.75212C66.975 2.77259 70.6345 4.15 73.4855 6.73497C74.337 7.50862 75.1065 8.37437 75.7778 9.32403C77.231 11.383 78.0947 13.6896 78.4221 16.0413C78.813 18.8473 78.4324 21.7188 77.3722 24.3037C76.3018 26.9071 74.5396 29.2219 72.1757 30.89C70.3561 32.1753 68.1846 33.0718 65.704 33.4177C62.108 33.9191 59.349 33.2928 57.3494 31.9932C56.2135 31.2564 55.3355 30.3128 54.699 29.2404C54.0788 28.1945 53.694 27.0279 53.5242 25.8122C53.1537 23.1556 53.8455 20.2288 55.3887 17.8526C59.9099 10.8898 67.675 15.2308 67.6975 15.2431Z" fill="#9A705C" fill-opacity="0.5"/>
<path d="M93.7358 49.0236C92.5098 49.3879 91.2184 48.69 90.8541 47.4641C90.4877 46.2381 91.1856 44.9466 92.4116 44.5803C92.43 44.5762 98.6499 42.7833 96.2757 35.3477C95.7784 33.7881 95.0866 32.7074 94.2843 32.0013C93.5209 31.3321 92.6163 30.9862 91.6666 30.8818C90.5941 30.7651 89.4562 30.933 88.3612 31.2829C86.4025 31.9072 84.6382 33.0738 83.6006 34.2547L83.5965 34.2588L83.6006 34.2629L83.488 34.3919C81.9714 36.1991 80.1376 39.7706 79.7651 43.8742C79.4028 47.8611 80.4855 52.3475 84.7713 56.1093C84.7876 56.1236 84.8941 56.2136 85.0947 56.3815C85.418 56.6537 85.6677 56.8584 85.8479 56.9975C90.1091 60.3296 93.8463 61.1319 97.0023 60.4769C100.199 59.8138 102.942 57.6566 105.085 55.1044C105.322 54.8199 105.498 54.607 105.613 54.4596C110.817 47.7997 114.377 47.46 123.269 46.6106C123.789 46.5615 124.344 46.5083 125.283 46.4141C128.767 46.0682 131.356 44.9384 133.237 43.5385C134.448 42.6359 135.363 41.6351 136.029 40.6731C131.413 40.5278 123.904 39.0153 119.256 31.4569C117.232 28.1679 115.846 25.0528 114.651 22.3635C112.547 17.6356 111.167 14.5328 107.5 14.9176C106.094 15.065 104.698 15.3044 103.388 15.5275C97.1886 16.5898 92.6285 17.3695 86.9162 10.1427C85.6821 8.58311 84.4336 7.3285 83.1892 6.4034C81.6767 5.28181 80.2052 4.67189 78.8093 4.62686C77.4749 4.58388 76.1281 5.06487 74.7978 6.11686C73.9832 6.75953 73.1707 7.61912 72.3663 8.70387C71.605 9.72926 70.1559 9.94416 69.1305 9.18484C68.1031 8.42347 67.8881 6.97441 68.6495 5.94697C69.6933 4.54295 70.7904 3.39476 71.9324 2.49216C74.1633 0.729965 76.5252 -0.074379 78.9546 0.00543976C81.3247 0.0811691 83.6743 1.00013 85.944 2.6866C87.5077 3.84912 89.0468 5.38824 90.5409 7.27938C94.5422 12.3408 97.9622 11.7555 102.608 10.9593C103.947 10.7301 105.373 10.4865 107.029 10.3126C114.027 9.57986 115.948 13.8984 118.875 20.4785C119.995 22.9959 121.292 25.9145 123.208 29.0275C128.624 37.8323 139.266 35.888 139.297 35.8819L139.299 35.888C139.586 35.8389 139.884 35.843 140.185 35.9085C141.432 36.1848 142.22 37.4189 141.946 38.6653C141.45 40.8942 139.686 44.5045 135.994 47.2532C133.517 49.0973 130.165 50.5791 125.738 51.0192C125.263 51.0662 124.471 51.142 123.703 51.2156C116.227 51.9299 113.235 52.2144 109.256 57.3045C109 57.6341 108.789 57.896 108.638 58.0782C105.905 61.3324 102.307 64.1036 97.9438 65.0083C93.5414 65.9231 88.4962 64.9366 83.0009 60.6406C82.6386 60.3582 82.346 60.1228 82.1229 59.9366C82.0779 59.8997 81.9449 59.7831 81.7259 59.5907C76.0995 54.652 74.6811 48.731 75.1601 43.4566C75.6308 38.2949 77.9845 33.7431 79.935 31.418C80.0332 31.3014 80.0946 31.2297 80.1212 31.199L80.1253 31.2031C81.6583 29.4593 84.1962 27.7606 86.9654 26.8764C88.6437 26.3402 90.4263 26.0884 92.1557 26.2788C94.01 26.4814 95.7907 27.1711 97.3298 28.5219C98.7379 29.7561 99.9065 31.5224 100.68 33.9518C104.499 45.9086 93.7665 49.0134 93.7358 49.0236Z" fill="#9A705C" fill-opacity="0.5"/>
</svg>
