<svg width="133" height="22" viewBox="0 0 133 22" fill="none" xmlns="http://www.w3.org/2000/svg">
<path fill-rule="evenodd" clip-rule="evenodd" d="M13.9098 17.1789C15.6829 16.137 16.8844 14.1232 16.8844 11.8098C16.8844 8.42733 14.3159 5.6853 11.1474 5.6853C7.97895 5.6853 5.4104 8.42733 5.4104 11.8098C5.4104 14.1232 6.61196 16.1371 8.38522 17.179V17.7967C8.38522 19.3223 9.62193 20.559 11.1475 20.559C12.673 20.559 13.9098 19.3223 13.9098 17.7967V17.1789Z" fill="#FFE37C"/>
<path fill-rule="evenodd" clip-rule="evenodd" d="M12.6506 17.1789C14.1611 16.137 15.1846 14.1232 15.1846 11.8098C15.1846 8.42733 12.9966 5.6853 10.2975 5.6853C7.59842 5.6853 5.4104 8.42733 5.4104 11.8098C5.4104 14.1233 6.43397 16.1371 7.94455 17.179V18.2059C7.94455 19.5055 8.99804 20.559 10.2976 20.559C11.5971 20.559 12.6506 19.5055 12.6506 18.2059V17.1789Z" fill="#FFEEB3"/>
<path d="M7.53648 18.8592C7.53648 18.3898 7.48911 18.0093 7.98963 18.0093C7.98963 18.0093 9.12245 18.6467 10.935 18.6467C12.7475 18.6467 13.8804 18.0093 13.8804 18.0093C14.3809 18.0093 14.3335 18.3898 14.3335 18.8592V20.984C14.3335 21.4534 13.9278 21.834 13.4272 21.834H8.44275C7.94223 21.834 7.53648 21.4534 7.53648 20.984V18.8592Z" fill="#C1C0C0"/>
<path d="M7.53648 18.7648C7.53648 18.3475 7.48911 18.0093 7.98963 18.0093C7.98963 18.0093 9.12245 18.5759 10.935 18.5759C12.7475 18.5759 13.8804 18.0093 13.8804 18.0093C14.3809 18.0093 14.3335 18.3475 14.3335 18.7648V20.6535C14.3335 21.0707 13.9278 21.409 13.4272 21.409H8.44275C7.94223 21.409 7.53648 21.0707 7.53648 20.6535V18.7648Z" fill="#D9D9D9"/>
<path d="M0.310913 7.17285L3.71063 8.66023" stroke="#FFE37C"/>
<path d="M3.92297 2.71069L6.04779 4.83551" stroke="#FFE37C"/>
<path d="M11.3599 0.79834V3.77309" stroke="#FFE37C"/>
<path d="M17.5221 2.9231L15.8223 4.83543" stroke="#FFE37C"/>
<path d="M20.9215 6.74805L17.9468 8.23542" stroke="#FFE37C"/>
<path d="M83.2582 9.53698L83.0176 11.1159H78.7142L78.9548 9.53698H83.2582ZM78.7732 17.1158L80.0216 8.98929C80.1033 8.43995 80.2697 7.98437 80.5209 7.62253C80.7751 7.26069 81.0883 6.98931 81.4606 6.8084C81.8358 6.62748 82.2414 6.53702 82.6771 6.53702C82.9737 6.53702 83.2415 6.56169 83.4806 6.61103C83.7227 6.66037 83.8982 6.70478 84.0072 6.74425L83.4307 8.32318C83.358 8.29686 83.2688 8.27219 83.1628 8.24916C83.0569 8.22614 82.945 8.21463 82.8269 8.21463C82.5455 8.21463 82.3382 8.28699 82.205 8.43173C82.0749 8.57317 81.9871 8.77218 81.9418 9.02876L80.7025 17.1158H78.7732Z" fill="#926343"/>
<path d="M88.239 13.8889L88.9063 9.53698H90.8401L89.678 17.1158H87.8214L88.0302 15.7392H87.9576C87.7427 16.1833 87.4295 16.5402 87.0179 16.8099C86.6064 17.0796 86.1388 17.2145 85.6153 17.2145C85.1492 17.2145 84.7558 17.0994 84.435 16.8691C84.1173 16.6388 83.8918 16.3115 83.7586 15.8872C83.6255 15.4629 83.6028 14.9547 83.6906 14.3626L84.435 9.53698H86.3688L85.6879 13.9876C85.6243 14.4349 85.6818 14.7885 85.8604 15.0484C86.0389 15.3083 86.3113 15.4382 86.6775 15.4382C86.9105 15.4382 87.136 15.3806 87.3539 15.2655C87.5748 15.1471 87.7654 14.9728 87.9258 14.7425C88.0862 14.5122 88.1906 14.2277 88.239 13.8889Z" fill="#926343"/>
<path d="M93.8395 12.7343L93.1677 17.1158H91.2385L92.4005 9.53698H94.239L94.0393 10.8741H94.1164C94.3374 10.4301 94.6491 10.0797 95.0515 9.82315C95.4571 9.56658 95.9186 9.43829 96.4361 9.43829C96.9203 9.43829 97.3243 9.55342 97.6481 9.78368C97.9749 10.0139 98.2049 10.3412 98.3381 10.7656C98.4743 11.1899 98.497 11.6981 98.4062 12.2902L97.6617 17.1158H95.7279L96.4134 12.6652C96.483 12.2014 96.4285 11.8396 96.25 11.5797C96.0744 11.3166 95.7915 11.185 95.4011 11.185C95.1408 11.185 94.9018 11.2458 94.6839 11.3675C94.466 11.4893 94.2829 11.6669 94.1346 11.9004C93.9893 12.1307 93.891 12.4086 93.8395 12.7343Z" fill="#926343"/>
<path d="M106.312 19.9579L106.924 15.902H106.865C106.747 16.1125 106.59 16.3214 106.393 16.5287C106.197 16.7326 105.956 16.902 105.671 17.0369C105.39 17.1717 105.062 17.2392 104.686 17.2392C104.157 17.2392 103.701 17.0911 103.32 16.7951C102.939 16.4958 102.666 16.0566 102.503 15.4777C102.343 14.8955 102.326 14.1816 102.453 13.3363C102.586 12.4679 102.825 11.7458 103.17 11.1702C103.515 10.5912 103.924 10.1587 104.396 9.8725C104.868 9.58303 105.358 9.43829 105.867 9.43829C106.257 9.43829 106.572 9.51066 106.811 9.6554C107.053 9.79684 107.239 9.97447 107.369 10.1883C107.499 10.3988 107.59 10.606 107.642 10.81H107.723L107.928 9.53698H109.834L108.245 19.9579H106.312ZM105.553 15.5665C105.865 15.5665 106.144 15.4744 106.389 15.2902C106.637 15.1027 106.843 14.8412 107.006 14.5057C107.173 14.1701 107.291 13.777 107.36 13.3264C107.43 12.8757 107.431 12.4843 107.365 12.1521C107.301 11.8198 107.174 11.5633 106.983 11.3823C106.796 11.2014 106.546 11.111 106.234 11.111C105.914 11.111 105.631 11.2047 105.386 11.3922C105.14 11.5797 104.936 11.8396 104.773 12.1718C104.609 12.504 104.494 12.8889 104.428 13.3264C104.361 13.7672 104.358 14.157 104.419 14.4958C104.482 14.8313 104.608 15.0945 104.795 15.2852C104.986 15.4727 105.239 15.5665 105.553 15.5665Z" fill="#926343"/>
<path d="M115.191 13.8889L115.858 9.53698H117.792L116.63 17.1158H114.773L114.982 15.7392H114.909C114.694 16.1833 114.381 16.5402 113.97 16.8099C113.558 17.0796 113.09 17.2145 112.567 17.2145C112.101 17.2145 111.707 17.0994 111.387 16.8691C111.069 16.6388 110.843 16.3115 110.71 15.8872C110.577 15.4629 110.554 14.9547 110.642 14.3626L111.387 9.53698H113.32L112.639 13.9876C112.576 14.4349 112.633 14.7885 112.812 15.0484C112.991 15.3083 113.263 15.4382 113.629 15.4382C113.862 15.4382 114.088 15.3806 114.305 15.2655C114.526 15.1471 114.717 14.9728 114.877 14.7425C115.038 14.5122 115.142 14.2277 115.191 13.8889Z" fill="#926343"/>
<path d="M118.176 17.1158L119.339 9.53698H121.272L120.11 17.1158H118.176ZM120.505 8.55015C120.218 8.55015 119.98 8.44653 119.792 8.2393C119.608 8.02877 119.532 7.77878 119.565 7.48931C119.599 7.19326 119.729 6.94326 119.956 6.73932C120.183 6.53208 120.44 6.42847 120.728 6.42847C121.015 6.42847 121.25 6.53208 121.431 6.73932C121.613 6.94326 121.688 7.19326 121.658 7.48931C121.628 7.77878 121.499 8.02877 121.272 8.2393C121.048 8.44653 120.793 8.55015 120.505 8.55015Z" fill="#926343"/>
<path d="M121.637 17.1158L121.823 15.8625L125.931 11.2689L125.949 11.2146H122.653L122.912 9.53698H128.541L128.341 10.9037L124.451 15.3839L124.433 15.4382H127.756L127.506 17.1158H121.637Z" fill="#926343"/>
<path d="M132.832 7.0107L131.579 14.0863H129.927L130.821 7.0107H132.832ZM130.385 17.2441C130.079 17.2441 129.828 17.129 129.632 16.8987C129.438 16.6685 129.35 16.3889 129.368 16.0599C129.389 15.7343 129.515 15.4596 129.745 15.2359C129.978 15.0089 130.246 14.8955 130.549 14.8955C130.839 14.8955 131.084 15.0089 131.284 15.2359C131.484 15.4629 131.571 15.7375 131.547 16.0599C131.532 16.277 131.467 16.476 131.352 16.6569C131.24 16.8346 131.098 16.9777 130.925 17.0862C130.753 17.1915 130.573 17.2441 130.385 17.2441Z" fill="#926343"/>
<path d="M24.115 9.23242H25.9476L27.8831 13.9545H27.9654L29.901 9.23242H31.7335V16.2607H30.2922V11.6861H30.2338L28.415 16.2264H27.4335L25.6147 11.669H25.5563V16.2607H24.115V9.23242Z" fill="#926343"/>
<path d="M34.8457 16.2607H33.2533L35.6796 9.23242H37.5945L40.0174 16.2607H38.425L36.6645 10.8385H36.6096L34.8457 16.2607ZM34.7462 13.4981H38.5074V14.6581H34.7462V13.4981Z" fill="#926343"/>
<path d="M43.0257 9.23242V16.2607H41.5398V9.23242H43.0257Z" fill="#926343"/>
<path d="M50.8034 9.23242V16.2607H49.5199L46.4622 11.8371H46.4107V16.2607H44.9248V9.23242H46.2288L49.2625 13.6525H49.3243V9.23242H50.8034Z" fill="#926343"/>
<path d="M52.7076 16.2607V9.23242H54.1935V12.3313H54.2862L56.8154 9.23242H58.5965L55.9883 12.3794L58.6274 16.2607H56.8497L54.9245 13.3711L54.1935 14.2634V16.2607H52.7076Z" fill="#926343"/>
<path d="M61.2582 16.2607H59.6659L62.0922 9.23242H64.0071L66.4299 16.2607H64.8376L63.0771 10.8385H63.0222L61.2582 16.2607ZM61.1587 13.4981H64.9199V14.6581H61.1587V13.4981Z" fill="#926343"/>
<path d="M73.8309 9.23242V16.2607H72.5475L69.4898 11.8371H69.4383V16.2607H67.9523V9.23242H69.2564L72.2901 13.6525H72.3519V9.23242H73.8309Z" fill="#926343"/>
</svg>
