<svg width="40" height="40" viewBox="0 0 40 40" fill="none" xmlns="http://www.w3.org/2000/svg">
<rect width="40" height="40" rx="14" fill="#CCB7AE"/>
<path d="M11.095 23.8575L9 17.3899H10.546L12.0808 22.3001L11.5431 22.2882L13.1787 17.3899H14.4783L16.1027 22.2882L15.565 22.3001L17.0998 17.3899H18.6458L16.5508 23.8575H15.2401L13.582 18.7334H14.075L12.3945 23.8575H11.095Z" fill="white"/>
<path d="M20.2703 23.8573V22.1929H21.7491V23.8573H20.2703Z" fill="#FF0000"/>
<path d="M25.7702 24C25.3445 24 24.9748 23.9247 24.6611 23.7741C24.3474 23.6235 24.1047 23.4095 23.9329 23.1321C23.7612 22.8468 23.6753 22.5178 23.6753 22.1453C23.6753 21.7886 23.75 21.4716 23.8993 21.1942C24.0487 20.9088 24.2802 20.6711 24.5939 20.4808C24.9076 20.2906 25.3034 20.1559 25.7814 20.0766L27.7756 19.7318V20.9207L26.0615 21.2299C25.7702 21.2853 25.5536 21.3844 25.4117 21.5271C25.2698 21.6697 25.1989 21.856 25.1989 22.0859C25.1989 22.3078 25.2773 22.4861 25.4341 22.6209C25.5985 22.7477 25.8001 22.8111 26.0391 22.8111C26.3453 22.8111 26.6142 22.7437 26.8457 22.609C27.0847 22.4663 27.2677 22.2721 27.3947 22.0264C27.5291 21.7807 27.5963 21.5112 27.5963 21.218V19.5535C27.5963 19.2761 27.4918 19.0462 27.2826 18.8639C27.081 18.6737 26.8121 18.5786 26.476 18.5786C26.1623 18.5786 25.8823 18.6697 25.6358 18.852C25.3968 19.0264 25.2213 19.2602 25.1093 19.5535L23.9105 18.9353C24.03 18.5945 24.2168 18.3012 24.4707 18.0555C24.7321 17.8018 25.0383 17.6037 25.3893 17.461C25.7404 17.3184 26.1213 17.247 26.532 17.247C27.0324 17.247 27.4731 17.3461 27.854 17.5443C28.2349 17.7345 28.5299 18.004 28.739 18.3527C28.9556 18.6935 29.0639 19.0938 29.0639 19.5535V23.8573H27.6747V22.7516L27.9884 22.7279C27.8316 23.0053 27.6449 23.2391 27.4283 23.4293C27.2117 23.6116 26.9652 23.7543 26.6889 23.8573C26.4125 23.9524 26.1063 24 25.7702 24Z" fill="#54321A"/>
<path d="M30.5324 23.8573V17.3897H32V23.8573H30.5324ZM30.5324 16.6645V15H32V16.6645H30.5324Z" fill="#54321A"/>
</svg>
