<svg width="42" height="25" viewBox="0 0 42 25" fill="none" xmlns="http://www.w3.org/2000/svg">
<path fill-rule="evenodd" clip-rule="evenodd" d="M24.3684 18.9188C26.3941 17.7286 27.7667 15.428 27.7667 12.7851C27.7667 8.92105 24.8324 5.78857 21.2127 5.78857C17.5931 5.78857 14.6588 8.92105 14.6588 12.7851C14.6588 15.428 16.0315 17.7286 18.0572 18.9188V19.6246C18.0572 21.3674 19.47 22.7802 21.2128 22.7802C22.9556 22.7802 24.3684 21.3674 24.3684 19.6246V18.9188Z" fill="#FFE37C"/>
<path fill-rule="evenodd" clip-rule="evenodd" d="M22.93 18.9188C24.6555 17.7285 25.8248 15.428 25.8248 12.7851C25.8248 8.92105 23.3252 5.78857 20.2418 5.78857C17.1584 5.78857 14.6588 8.92105 14.6588 12.7851C14.6588 15.428 15.8281 17.7287 17.5538 18.9189V20.0921C17.5538 21.5767 18.7573 22.7802 20.2419 22.7802C21.7265 22.7802 22.93 21.5767 22.93 20.0921V18.9188Z" fill="#FFEEB3"/>
<path d="M17.0876 20.8383C17.0876 20.302 17.0334 19.8673 17.6052 19.8673C17.6052 19.8673 18.8994 20.5955 20.97 20.5955C23.0406 20.5955 24.3348 19.8673 24.3348 19.8673C24.9066 19.8673 24.8524 20.302 24.8524 20.8383V23.2656C24.8524 23.8019 24.3889 24.2366 23.8171 24.2366H18.1229C17.5511 24.2366 17.0876 23.8019 17.0876 23.2656V20.8383Z" fill="#C1C0C0"/>
<path d="M17.0876 20.7304C17.0876 20.2537 17.0334 19.8673 17.6052 19.8673C17.6052 19.8673 18.8994 20.5146 20.97 20.5146C23.0406 20.5146 24.3348 19.8673 24.3348 19.8673C24.9066 19.8673 24.8524 20.2537 24.8524 20.7304V22.8881C24.8524 23.3647 24.3889 23.7511 23.8171 23.7511H18.1229C17.5511 23.7511 17.0876 23.3647 17.0876 22.8881V20.7304Z" fill="#D9D9D9"/>
<path d="M8.83301 7.48779L12.7168 9.18696" stroke="#FFE37C"/>
<path d="M12.9596 2.39026L15.387 4.81764" stroke="#FFE37C"/>
<path d="M21.4554 0.205566V3.6039" stroke="#FFE37C"/>
<path d="M28.4949 2.63293L26.553 4.81758" stroke="#FFE37C"/>
<path d="M32.3786 7.00232L28.9802 8.70149" stroke="#FFE37C"/>
<mask id="path-10-outside-1_51_345" maskUnits="userSpaceOnUse" x="0" y="9.60107" width="42" height="11" fill="black">
<rect fill="white" y="9.60107" width="42" height="11"/>
<path d="M5.19064 12.5109L5.0217 13.481H2L2.16893 12.5109H5.19064ZM2.04144 17.1674L2.91799 12.1744C2.97536 11.8369 3.09223 11.557 3.26861 11.3347C3.4471 11.1124 3.66704 10.9457 3.92841 10.8345C4.1919 10.7233 4.47665 10.6678 4.78264 10.6678C4.99089 10.6678 5.17895 10.6829 5.34682 10.7132C5.51682 10.7436 5.64007 10.7708 5.71657 10.7951L5.31176 11.7652C5.26076 11.749 5.19808 11.7339 5.1237 11.7197C5.04933 11.7056 4.9707 11.6985 4.88783 11.6985C4.69021 11.6985 4.54465 11.743 4.45115 11.8319C4.35978 11.9188 4.29815 12.0411 4.26628 12.1987L3.3961 17.1674H2.04144Z"/>
<path d="M8.68807 15.1848L9.15663 12.5109H10.5145L9.69849 17.1674H8.39482L8.54145 16.3216H8.49045C8.33958 16.5944 8.11964 16.8137 7.83065 16.9794C7.54165 17.1452 7.21334 17.228 6.84572 17.228C6.51848 17.228 6.24223 17.1573 6.01699 17.0158C5.79386 16.8744 5.63555 16.6733 5.54206 16.4125C5.44856 16.1518 5.43262 15.8396 5.49424 15.4758L6.01699 12.5109H7.37484L6.89672 15.2454C6.8521 15.5203 6.89247 15.7375 7.01785 15.8972C7.14322 16.0568 7.33447 16.1367 7.59159 16.1367C7.75521 16.1367 7.91352 16.1013 8.06652 16.0306C8.22164 15.9578 8.35551 15.8507 8.46814 15.7092C8.58076 15.5678 8.65407 15.3929 8.68807 15.1848Z"/>
<path d="M12.6206 14.4754L12.1488 17.1674H10.7942L11.6102 12.5109H12.9011L12.7608 13.3325H12.815C12.9701 13.0597 13.189 12.8444 13.4716 12.6868C13.7564 12.5291 14.0804 12.4503 14.4438 12.4503C14.7838 12.4503 15.0675 12.5211 15.2949 12.6625C15.5244 12.804 15.6859 13.0051 15.7794 13.2658C15.875 13.5265 15.8909 13.8388 15.8272 14.2026L15.3044 17.1674H13.9466L14.4279 14.4329C14.4767 14.148 14.4385 13.9257 14.3131 13.766C14.1899 13.6043 13.9912 13.5235 13.7171 13.5235C13.5343 13.5235 13.3665 13.5609 13.2135 13.6357C13.0605 13.7104 12.9319 13.8196 12.8278 13.9631C12.7258 14.1045 12.6567 14.2753 12.6206 14.4754Z"/>
<path d="M21.3781 18.9136L21.8084 16.4216H21.767C21.6841 16.551 21.5736 16.6793 21.4355 16.8066C21.2974 16.932 21.1284 17.036 20.9287 17.1189C20.7311 17.2018 20.5005 17.2432 20.237 17.2432C19.8651 17.2432 19.5453 17.1522 19.2776 16.9704C19.0098 16.7864 18.8186 16.5166 18.7038 16.1609C18.5912 15.8032 18.5795 15.3646 18.6688 14.8452C18.7623 14.3117 18.9301 13.8681 19.1724 13.5144C19.4146 13.1587 19.7015 12.8929 20.033 12.7171C20.3645 12.5392 20.7087 12.4503 21.0657 12.4503C21.3399 12.4503 21.5609 12.4948 21.7287 12.5837C21.8987 12.6706 22.0294 12.7797 22.1208 12.9111C22.2122 13.0405 22.2759 13.1678 22.312 13.2931H22.3694L22.5128 12.5109H23.8516L22.736 18.9136H21.3781ZM20.8458 16.2155C21.0647 16.2155 21.2602 16.1589 21.4323 16.0457C21.6065 15.9305 21.751 15.7699 21.8658 15.5637C21.9827 15.3576 22.0655 15.1161 22.1144 14.8392C22.1633 14.5623 22.1643 14.3218 22.1176 14.1177C22.073 13.9135 21.9837 13.7559 21.8499 13.6447C21.7181 13.5336 21.5428 13.478 21.3239 13.478C21.0987 13.478 20.9 13.5356 20.7279 13.6508C20.5557 13.766 20.4123 13.9257 20.2976 14.1298C20.1828 14.3339 20.1021 14.5704 20.0553 14.8392C20.0086 15.11 20.0064 15.3495 20.0489 15.5577C20.0936 15.7638 20.1818 15.9255 20.3135 16.0427C20.4474 16.1579 20.6248 16.2155 20.8458 16.2155Z"/>
<path d="M27.6128 15.1848L28.0813 12.5109H29.4392L28.6232 17.1674H27.3195L27.4661 16.3216H27.4151C27.2643 16.5944 27.0443 16.8137 26.7553 16.9794C26.4663 17.1452 26.138 17.228 25.7704 17.228C25.4432 17.228 25.1669 17.1573 24.9417 17.0158C24.7186 16.8744 24.5602 16.6733 24.4668 16.4125C24.3733 16.1518 24.3573 15.8396 24.4189 15.4758L24.9417 12.5109H26.2995L25.8214 15.2454C25.7768 15.5203 25.8172 15.7375 25.9425 15.8972C26.0679 16.0568 26.2592 16.1367 26.5163 16.1367C26.6799 16.1367 26.8382 16.1013 26.9912 16.0306C27.1463 15.9578 27.2802 15.8507 27.3928 15.7092C27.5055 15.5678 27.5788 15.3929 27.6128 15.1848Z"/>
<path d="M29.7093 17.1674L30.5253 12.5109H31.8832L31.0672 17.1674H29.7093ZM31.3445 11.9046C31.1426 11.9046 30.9758 11.841 30.844 11.7137C30.7144 11.5843 30.6613 11.4307 30.6847 11.2529C30.708 11.071 30.7994 10.9174 30.9588 10.7921C31.1182 10.6647 31.2988 10.6011 31.5007 10.6011C31.7025 10.6011 31.8672 10.6647 31.9947 10.7921C32.1222 10.9174 32.1753 11.071 32.1541 11.2529C32.1328 11.4307 32.0425 11.5843 31.8832 11.7137C31.7259 11.841 31.5463 11.9046 31.3445 11.9046Z"/>
<path d="M32.1389 17.1674L32.2696 16.3974L35.1543 13.575L35.167 13.5417H32.8529L33.0346 12.5109H36.9871L36.8468 13.3507L34.1152 16.1033L34.1024 16.1367H36.4356L36.2603 17.1674H32.1389Z"/>
<path d="M40 10.9588L39.1203 15.306H37.96L38.588 10.9588H40ZM38.282 17.2462C38.0673 17.2462 37.891 17.1755 37.7528 17.034C37.6168 16.8925 37.5552 16.7208 37.568 16.5187C37.5828 16.3186 37.671 16.1498 37.8325 16.0124C37.9962 15.8729 38.1842 15.8032 38.3967 15.8032C38.6007 15.8032 38.7728 15.8729 38.9131 16.0124C39.0533 16.1518 39.1149 16.3206 39.0979 16.5187C39.0873 16.652 39.0416 16.7743 38.9609 16.8855C38.8823 16.9946 38.7824 17.0825 38.6613 17.1492C38.5401 17.2139 38.4137 17.2462 38.282 17.2462Z"/>
</mask>
<path d="M5.19064 12.5109L5.0217 13.481H2L2.16893 12.5109H5.19064ZM2.04144 17.1674L2.91799 12.1744C2.97536 11.8369 3.09223 11.557 3.26861 11.3347C3.4471 11.1124 3.66704 10.9457 3.92841 10.8345C4.1919 10.7233 4.47665 10.6678 4.78264 10.6678C4.99089 10.6678 5.17895 10.6829 5.34682 10.7132C5.51682 10.7436 5.64007 10.7708 5.71657 10.7951L5.31176 11.7652C5.26076 11.749 5.19808 11.7339 5.1237 11.7197C5.04933 11.7056 4.9707 11.6985 4.88783 11.6985C4.69021 11.6985 4.54465 11.743 4.45115 11.8319C4.35978 11.9188 4.29815 12.0411 4.26628 12.1987L3.3961 17.1674H2.04144Z" fill="#54321A"/>
<path d="M8.68807 15.1848L9.15663 12.5109H10.5145L9.69849 17.1674H8.39482L8.54145 16.3216H8.49045C8.33958 16.5944 8.11964 16.8137 7.83065 16.9794C7.54165 17.1452 7.21334 17.228 6.84572 17.228C6.51848 17.228 6.24223 17.1573 6.01699 17.0158C5.79386 16.8744 5.63555 16.6733 5.54206 16.4125C5.44856 16.1518 5.43262 15.8396 5.49424 15.4758L6.01699 12.5109H7.37484L6.89672 15.2454C6.8521 15.5203 6.89247 15.7375 7.01785 15.8972C7.14322 16.0568 7.33447 16.1367 7.59159 16.1367C7.75521 16.1367 7.91352 16.1013 8.06652 16.0306C8.22164 15.9578 8.35551 15.8507 8.46814 15.7092C8.58076 15.5678 8.65407 15.3929 8.68807 15.1848Z" fill="#54321A"/>
<path d="M12.6206 14.4754L12.1488 17.1674H10.7942L11.6102 12.5109H12.9011L12.7608 13.3325H12.815C12.9701 13.0597 13.189 12.8444 13.4716 12.6868C13.7564 12.5291 14.0804 12.4503 14.4438 12.4503C14.7838 12.4503 15.0675 12.5211 15.2949 12.6625C15.5244 12.804 15.6859 13.0051 15.7794 13.2658C15.875 13.5265 15.8909 13.8388 15.8272 14.2026L15.3044 17.1674H13.9466L14.4279 14.4329C14.4767 14.148 14.4385 13.9257 14.3131 13.766C14.1899 13.6043 13.9912 13.5235 13.7171 13.5235C13.5343 13.5235 13.3665 13.5609 13.2135 13.6357C13.0605 13.7104 12.9319 13.8196 12.8278 13.9631C12.7258 14.1045 12.6567 14.2753 12.6206 14.4754Z" fill="#54321A"/>
<path d="M21.3781 18.9136L21.8084 16.4216H21.767C21.6841 16.551 21.5736 16.6793 21.4355 16.8066C21.2974 16.932 21.1284 17.036 20.9287 17.1189C20.7311 17.2018 20.5005 17.2432 20.237 17.2432C19.8651 17.2432 19.5453 17.1522 19.2776 16.9704C19.0098 16.7864 18.8186 16.5166 18.7038 16.1609C18.5912 15.8032 18.5795 15.3646 18.6688 14.8452C18.7623 14.3117 18.9301 13.8681 19.1724 13.5144C19.4146 13.1587 19.7015 12.8929 20.033 12.7171C20.3645 12.5392 20.7087 12.4503 21.0657 12.4503C21.3399 12.4503 21.5609 12.4948 21.7287 12.5837C21.8987 12.6706 22.0294 12.7797 22.1208 12.9111C22.2122 13.0405 22.2759 13.1678 22.312 13.2931H22.3694L22.5128 12.5109H23.8516L22.736 18.9136H21.3781ZM20.8458 16.2155C21.0647 16.2155 21.2602 16.1589 21.4323 16.0457C21.6065 15.9305 21.751 15.7699 21.8658 15.5637C21.9827 15.3576 22.0655 15.1161 22.1144 14.8392C22.1633 14.5623 22.1643 14.3218 22.1176 14.1177C22.073 13.9135 21.9837 13.7559 21.8499 13.6447C21.7181 13.5336 21.5428 13.478 21.3239 13.478C21.0987 13.478 20.9 13.5356 20.7279 13.6508C20.5557 13.766 20.4123 13.9257 20.2976 14.1298C20.1828 14.3339 20.1021 14.5704 20.0553 14.8392C20.0086 15.11 20.0064 15.3495 20.0489 15.5577C20.0936 15.7638 20.1818 15.9255 20.3135 16.0427C20.4474 16.1579 20.6248 16.2155 20.8458 16.2155Z" fill="#54321A"/>
<path d="M27.6128 15.1848L28.0813 12.5109H29.4392L28.6232 17.1674H27.3195L27.4661 16.3216H27.4151C27.2643 16.5944 27.0443 16.8137 26.7553 16.9794C26.4663 17.1452 26.138 17.228 25.7704 17.228C25.4432 17.228 25.1669 17.1573 24.9417 17.0158C24.7186 16.8744 24.5602 16.6733 24.4668 16.4125C24.3733 16.1518 24.3573 15.8396 24.4189 15.4758L24.9417 12.5109H26.2995L25.8214 15.2454C25.7768 15.5203 25.8172 15.7375 25.9425 15.8972C26.0679 16.0568 26.2592 16.1367 26.5163 16.1367C26.6799 16.1367 26.8382 16.1013 26.9912 16.0306C27.1463 15.9578 27.2802 15.8507 27.3928 15.7092C27.5055 15.5678 27.5788 15.3929 27.6128 15.1848Z" fill="#54321A"/>
<path d="M29.7093 17.1674L30.5253 12.5109H31.8832L31.0672 17.1674H29.7093ZM31.3445 11.9046C31.1426 11.9046 30.9758 11.841 30.844 11.7137C30.7144 11.5843 30.6613 11.4307 30.6847 11.2529C30.708 11.071 30.7994 10.9174 30.9588 10.7921C31.1182 10.6647 31.2988 10.6011 31.5007 10.6011C31.7025 10.6011 31.8672 10.6647 31.9947 10.7921C32.1222 10.9174 32.1753 11.071 32.1541 11.2529C32.1328 11.4307 32.0425 11.5843 31.8832 11.7137C31.7259 11.841 31.5463 11.9046 31.3445 11.9046Z" fill="#54321A"/>
<path d="M32.1389 17.1674L32.2696 16.3974L35.1543 13.575L35.167 13.5417H32.8529L33.0346 12.5109H36.9871L36.8468 13.3507L34.1152 16.1033L34.1024 16.1367H36.4356L36.2603 17.1674H32.1389Z" fill="#54321A"/>
<path d="M40 10.9588L39.1203 15.306H37.96L38.588 10.9588H40ZM38.282 17.2462C38.0673 17.2462 37.891 17.1755 37.7528 17.034C37.6168 16.8925 37.5552 16.7208 37.568 16.5187C37.5828 16.3186 37.671 16.1498 37.8325 16.0124C37.9962 15.8729 38.1842 15.8032 38.3967 15.8032C38.6007 15.8032 38.7728 15.8729 38.9131 16.0124C39.0533 16.1518 39.1149 16.3206 39.0979 16.5187C39.0873 16.652 39.0416 16.7743 38.9609 16.8855C38.8823 16.9946 38.7824 17.0825 38.6613 17.1492C38.5401 17.2139 38.4137 17.2462 38.282 17.2462Z" fill="#54321A"/>
<path d="M5.19064 12.5109L5.0217 13.481H2L2.16893 12.5109H5.19064ZM2.04144 17.1674L2.91799 12.1744C2.97536 11.8369 3.09223 11.557 3.26861 11.3347C3.4471 11.1124 3.66704 10.9457 3.92841 10.8345C4.1919 10.7233 4.47665 10.6678 4.78264 10.6678C4.99089 10.6678 5.17895 10.6829 5.34682 10.7132C5.51682 10.7436 5.64007 10.7708 5.71657 10.7951L5.31176 11.7652C5.26076 11.749 5.19808 11.7339 5.1237 11.7197C5.04933 11.7056 4.9707 11.6985 4.88783 11.6985C4.69021 11.6985 4.54465 11.743 4.45115 11.8319C4.35978 11.9188 4.29815 12.0411 4.26628 12.1987L3.3961 17.1674H2.04144Z" stroke="white" stroke-width="2" mask="url(#path-10-outside-1_51_345)"/>
<path d="M8.68807 15.1848L9.15663 12.5109H10.5145L9.69849 17.1674H8.39482L8.54145 16.3216H8.49045C8.33958 16.5944 8.11964 16.8137 7.83065 16.9794C7.54165 17.1452 7.21334 17.228 6.84572 17.228C6.51848 17.228 6.24223 17.1573 6.01699 17.0158C5.79386 16.8744 5.63555 16.6733 5.54206 16.4125C5.44856 16.1518 5.43262 15.8396 5.49424 15.4758L6.01699 12.5109H7.37484L6.89672 15.2454C6.8521 15.5203 6.89247 15.7375 7.01785 15.8972C7.14322 16.0568 7.33447 16.1367 7.59159 16.1367C7.75521 16.1367 7.91352 16.1013 8.06652 16.0306C8.22164 15.9578 8.35551 15.8507 8.46814 15.7092C8.58076 15.5678 8.65407 15.3929 8.68807 15.1848Z" stroke="white" stroke-width="2" mask="url(#path-10-outside-1_51_345)"/>
<path d="M12.6206 14.4754L12.1488 17.1674H10.7942L11.6102 12.5109H12.9011L12.7608 13.3325H12.815C12.9701 13.0597 13.189 12.8444 13.4716 12.6868C13.7564 12.5291 14.0804 12.4503 14.4438 12.4503C14.7838 12.4503 15.0675 12.5211 15.2949 12.6625C15.5244 12.804 15.6859 13.0051 15.7794 13.2658C15.875 13.5265 15.8909 13.8388 15.8272 14.2026L15.3044 17.1674H13.9466L14.4279 14.4329C14.4767 14.148 14.4385 13.9257 14.3131 13.766C14.1899 13.6043 13.9912 13.5235 13.7171 13.5235C13.5343 13.5235 13.3665 13.5609 13.2135 13.6357C13.0605 13.7104 12.9319 13.8196 12.8278 13.9631C12.7258 14.1045 12.6567 14.2753 12.6206 14.4754Z" stroke="white" stroke-width="2" mask="url(#path-10-outside-1_51_345)"/>
<path d="M21.3781 18.9136L21.8084 16.4216H21.767C21.6841 16.551 21.5736 16.6793 21.4355 16.8066C21.2974 16.932 21.1284 17.036 20.9287 17.1189C20.7311 17.2018 20.5005 17.2432 20.237 17.2432C19.8651 17.2432 19.5453 17.1522 19.2776 16.9704C19.0098 16.7864 18.8186 16.5166 18.7038 16.1609C18.5912 15.8032 18.5795 15.3646 18.6688 14.8452C18.7623 14.3117 18.9301 13.8681 19.1724 13.5144C19.4146 13.1587 19.7015 12.8929 20.033 12.7171C20.3645 12.5392 20.7087 12.4503 21.0657 12.4503C21.3399 12.4503 21.5609 12.4948 21.7287 12.5837C21.8987 12.6706 22.0294 12.7797 22.1208 12.9111C22.2122 13.0405 22.2759 13.1678 22.312 13.2931H22.3694L22.5128 12.5109H23.8516L22.736 18.9136H21.3781ZM20.8458 16.2155C21.0647 16.2155 21.2602 16.1589 21.4323 16.0457C21.6065 15.9305 21.751 15.7699 21.8658 15.5637C21.9827 15.3576 22.0655 15.1161 22.1144 14.8392C22.1633 14.5623 22.1643 14.3218 22.1176 14.1177C22.073 13.9135 21.9837 13.7559 21.8499 13.6447C21.7181 13.5336 21.5428 13.478 21.3239 13.478C21.0987 13.478 20.9 13.5356 20.7279 13.6508C20.5557 13.766 20.4123 13.9257 20.2976 14.1298C20.1828 14.3339 20.1021 14.5704 20.0553 14.8392C20.0086 15.11 20.0064 15.3495 20.0489 15.5577C20.0936 15.7638 20.1818 15.9255 20.3135 16.0427C20.4474 16.1579 20.6248 16.2155 20.8458 16.2155Z" stroke="white" stroke-width="2" mask="url(#path-10-outside-1_51_345)"/>
<path d="M27.6128 15.1848L28.0813 12.5109H29.4392L28.6232 17.1674H27.3195L27.4661 16.3216H27.4151C27.2643 16.5944 27.0443 16.8137 26.7553 16.9794C26.4663 17.1452 26.138 17.228 25.7704 17.228C25.4432 17.228 25.1669 17.1573 24.9417 17.0158C24.7186 16.8744 24.5602 16.6733 24.4668 16.4125C24.3733 16.1518 24.3573 15.8396 24.4189 15.4758L24.9417 12.5109H26.2995L25.8214 15.2454C25.7768 15.5203 25.8172 15.7375 25.9425 15.8972C26.0679 16.0568 26.2592 16.1367 26.5163 16.1367C26.6799 16.1367 26.8382 16.1013 26.9912 16.0306C27.1463 15.9578 27.2802 15.8507 27.3928 15.7092C27.5055 15.5678 27.5788 15.3929 27.6128 15.1848Z" stroke="white" stroke-width="2" mask="url(#path-10-outside-1_51_345)"/>
<path d="M29.7093 17.1674L30.5253 12.5109H31.8832L31.0672 17.1674H29.7093ZM31.3445 11.9046C31.1426 11.9046 30.9758 11.841 30.844 11.7137C30.7144 11.5843 30.6613 11.4307 30.6847 11.2529C30.708 11.071 30.7994 10.9174 30.9588 10.7921C31.1182 10.6647 31.2988 10.6011 31.5007 10.6011C31.7025 10.6011 31.8672 10.6647 31.9947 10.7921C32.1222 10.9174 32.1753 11.071 32.1541 11.2529C32.1328 11.4307 32.0425 11.5843 31.8832 11.7137C31.7259 11.841 31.5463 11.9046 31.3445 11.9046Z" stroke="white" stroke-width="2" mask="url(#path-10-outside-1_51_345)"/>
<path d="M32.1389 17.1674L32.2696 16.3974L35.1543 13.575L35.167 13.5417H32.8529L33.0346 12.5109H36.9871L36.8468 13.3507L34.1152 16.1033L34.1024 16.1367H36.4356L36.2603 17.1674H32.1389Z" stroke="white" stroke-width="2" mask="url(#path-10-outside-1_51_345)"/>
<path d="M40 10.9588L39.1203 15.306H37.96L38.588 10.9588H40ZM38.282 17.2462C38.0673 17.2462 37.891 17.1755 37.7528 17.034C37.6168 16.8925 37.5552 16.7208 37.568 16.5187C37.5828 16.3186 37.671 16.1498 37.8325 16.0124C37.9962 15.8729 38.1842 15.8032 38.3967 15.8032C38.6007 15.8032 38.7728 15.8729 38.9131 16.0124C39.0533 16.1518 39.1149 16.3206 39.0979 16.5187C39.0873 16.652 39.0416 16.7743 38.9609 16.8855C38.8823 16.9946 38.7824 17.0825 38.6613 17.1492C38.5401 17.2139 38.4137 17.2462 38.282 17.2462Z" stroke="white" stroke-width="2" mask="url(#path-10-outside-1_51_345)"/>
</svg>
