<svg width="272" height="29" viewBox="0 0 272 29" fill="none" xmlns="http://www.w3.org/2000/svg">
<path d="M5.72286 22.4698L0.421143 6.32242H4.33364L8.21779 18.5814L6.85692 18.5517L10.9962 6.32242H14.285L18.396 18.5517L17.0351 18.5814L20.9192 6.32242H24.8317L19.53 22.4698H16.2129L12.0169 9.67656H13.2644L9.01163 22.4698H5.72286Z" fill="#54321A"/>
<path d="M31.2755 22.826C30.1981 22.826 29.2625 22.638 28.4687 22.262C27.6749 21.886 27.0606 21.3518 26.6259 20.6592C26.1911 19.9468 25.9738 19.1256 25.9738 18.1955C25.9738 17.305 26.1628 16.5135 26.5408 15.8209C26.9188 15.1085 27.5048 14.5148 28.2986 14.0399C29.0924 13.565 30.0942 13.2286 31.3038 13.0307L36.3504 12.1699V15.1382L32.0126 15.9099C31.2755 16.0484 30.7274 16.2958 30.3682 16.652C30.0091 17.0082 29.8296 17.4732 29.8296 18.0471C29.8296 18.6012 30.028 19.0464 30.425 19.3828C30.8408 19.6994 31.3511 19.8577 31.9559 19.8577C32.7309 19.8577 33.4113 19.6895 33.9972 19.3531C34.6021 18.9969 35.0651 18.5121 35.3865 17.8987C35.7267 17.2852 35.8968 16.6124 35.8968 15.8802V11.7247C35.8968 11.0321 35.6322 10.4582 35.1029 10.0031C34.5926 9.52815 33.9122 9.29069 33.0616 9.29069C32.2678 9.29069 31.559 9.51825 30.9353 9.97339C30.3304 10.4087 29.8863 10.9925 29.6028 11.7247L26.5692 10.1812C26.8716 9.33026 27.3441 8.59809 27.9867 7.98465C28.6483 7.35142 29.4232 6.8567 30.3115 6.50051C31.1999 6.14432 32.1638 5.96622 33.2034 5.96622C34.4698 5.96622 35.5849 6.21358 36.5489 6.70829C37.5128 7.18321 38.2594 7.85602 38.7886 8.72671C39.3368 9.57762 39.6108 10.5769 39.6108 11.7247V22.4698H36.0952V19.7093L36.8891 19.6499C36.4922 20.3425 36.0196 20.9263 35.4715 21.4012C34.9234 21.8564 34.2997 22.2126 33.6003 22.4698C32.901 22.7073 32.126 22.826 31.2755 22.826Z" fill="#54321A"/>
<path d="M43.3271 22.4698V6.32242H46.8143V9.49846L46.5308 8.93449C46.8899 7.96486 47.4758 7.23269 48.2886 6.73797C49.1202 6.22347 50.0842 5.96622 51.1804 5.96622C52.3145 5.96622 53.3162 6.22347 54.1857 6.73797C55.074 7.25247 55.7639 7.97475 56.2553 8.90481C56.7468 9.81508 56.9925 10.8738 56.9925 12.0809V22.4698H53.2784V13.001C53.2784 12.2886 53.1461 11.6752 52.8815 11.1607C52.6169 10.6462 52.2483 10.2504 51.7758 9.97339C51.3222 9.67656 50.7835 9.52815 50.1598 9.52815C49.555 9.52815 49.0163 9.67656 48.5437 9.97339C48.0712 10.2504 47.7027 10.6462 47.438 11.1607C47.1734 11.6752 47.0411 12.2886 47.0411 13.001V22.4698H43.3271Z" fill="#54321A"/>
<path d="M67.9014 29C66.7484 29 65.6805 28.8021 64.6977 28.4063C63.7148 28.0106 62.8643 27.4565 62.146 26.7441C61.4467 26.0515 60.9364 25.2303 60.615 24.2804L64.0739 22.915C64.3007 23.667 64.7449 24.2706 65.4064 24.7257C66.0869 25.2006 66.9185 25.4381 67.9014 25.4381C68.6574 25.4381 69.3189 25.2897 69.886 24.9928C70.4719 24.696 70.9255 24.2607 71.2468 23.6868C71.5682 23.1327 71.7288 22.4599 71.7288 21.6684V17.9877L72.4376 18.8782C71.9084 19.8478 71.1996 20.58 70.3112 21.0747C69.4229 21.5694 68.4117 21.8168 67.2776 21.8168C65.8412 21.8168 64.5559 21.4705 63.4218 20.7779C62.2878 20.0853 61.3994 19.1354 60.7568 17.9284C60.1142 16.7213 59.7929 15.3657 59.7929 13.8618C59.7929 12.3381 60.1142 10.9826 60.7568 9.79529C61.3994 8.60798 62.2783 7.67793 63.3935 7.00512C64.5086 6.31252 65.775 5.96622 67.1926 5.96622C68.3455 5.96622 69.3567 6.22347 70.2262 6.73797C71.1145 7.23269 71.8517 7.95496 72.4376 8.90481L71.9273 9.88434V6.32242H75.4429V21.6684C75.4429 23.0734 75.1121 24.3299 74.4506 25.4381C73.8079 26.5462 72.9196 27.4169 71.7855 28.0502C70.6704 28.6834 69.3756 29 67.9014 29ZM67.7313 18.2252C68.5251 18.2252 69.215 18.0471 69.8009 17.6909C70.4057 17.3149 70.8783 16.8004 71.2185 16.1474C71.5587 15.4944 71.7288 14.7424 71.7288 13.8915C71.7288 13.0604 71.5493 12.3183 71.1901 11.6653C70.8499 10.9925 70.3774 10.4681 69.7726 10.0921C69.1866 9.71614 68.5062 9.52815 67.7313 9.52815C66.9563 9.52815 66.257 9.71614 65.6333 10.0921C65.0095 10.4681 64.5181 10.9925 64.159 11.6653C63.8188 12.3183 63.6487 13.0604 63.6487 13.8915C63.6487 14.7226 63.8188 15.4647 64.159 16.1177C64.5181 16.7707 65.0001 17.2852 65.6049 17.6612C66.2286 18.0372 66.9374 18.2252 67.7313 18.2252Z" fill="#54321A"/>
<path d="M85.0637 22.826C83.4194 22.826 81.9829 22.4203 80.7543 21.609C79.5447 20.7779 78.713 19.6598 78.2594 18.2549L81.0378 16.8598C81.4348 17.77 81.9829 18.4824 82.6822 18.9969C83.4005 19.5114 84.1943 19.7687 85.0637 19.7687C85.7442 19.7687 86.2829 19.6104 86.6798 19.2938C87.0767 18.9771 87.2752 18.5616 87.2752 18.0471C87.2752 17.7305 87.1901 17.4732 87.02 17.2753C86.8688 17.0577 86.6514 16.8796 86.3679 16.741C86.1033 16.5827 85.8103 16.4541 85.489 16.3552L82.9657 15.6131C81.6616 15.2173 80.6693 14.6138 79.9888 13.8025C79.3273 12.9911 78.9965 12.0314 78.9965 10.9232C78.9965 9.93381 79.2328 9.07301 79.7053 8.34084C80.1967 7.58888 80.8677 7.00512 81.7183 6.58956C82.5877 6.174 83.58 5.96622 84.6952 5.96622C86.1506 5.96622 87.4358 6.33231 88.551 7.06448C89.6661 7.79666 90.46 8.82566 90.9325 10.1515L88.0973 11.5466C87.8327 10.8144 87.3886 10.2306 86.7648 9.79529C86.1411 9.35995 85.4418 9.14227 84.6668 9.14227C84.0431 9.14227 83.5517 9.29069 83.1925 9.58751C82.8334 9.88434 82.6539 10.2702 82.6539 10.7451C82.6539 11.042 82.7295 11.2992 82.8807 11.5169C83.0319 11.7346 83.2398 11.9127 83.5044 12.0512C83.7879 12.1897 84.1092 12.3183 84.4684 12.4371L86.9349 13.2088C88.2013 13.6046 89.1747 14.1982 89.8551 14.9898C90.5545 15.7813 90.9041 16.7509 90.9041 17.8987C90.9041 18.8683 90.6584 19.7291 90.167 20.4811C89.6756 21.2132 88.9951 21.7871 88.1257 22.2027C87.2563 22.6182 86.2356 22.826 85.0637 22.826Z" fill="#54321A"/>
<path d="M99.542 22.826C98.3513 22.826 97.3117 22.549 96.4234 21.9949C95.5539 21.4408 94.8829 20.6691 94.4104 19.6796C93.9568 18.6902 93.73 17.5326 93.73 16.2068V6.32242H97.444V15.8802C97.444 16.5531 97.5669 17.1467 97.8126 17.6612C98.0772 18.1559 98.4458 18.5517 98.9183 18.8485C99.4097 19.1256 99.9578 19.2641 100.563 19.2641C101.168 19.2641 101.706 19.1256 102.179 18.8485C102.651 18.5517 103.02 18.146 103.284 17.6315C103.549 17.117 103.681 16.5036 103.681 15.7912V6.32242H107.395V22.4698H103.88V19.2938L104.192 19.8577C103.833 20.8472 103.237 21.5892 102.406 22.0839C101.593 22.5786 100.638 22.826 99.542 22.826Z" fill="#54321A"/>
<path d="M111.131 22.4698V0H114.845V22.4698H111.131Z" fill="#54321A"/>
<path d="M120.316 22.4698V18.3142H124.058V22.4698H120.316Z" fill="#FF0000"/>
<path d="M134.234 22.826C133.157 22.826 132.221 22.638 131.428 22.262C130.634 21.886 130.02 21.3518 129.585 20.6592C129.15 19.9468 128.933 19.1256 128.933 18.1955C128.933 17.305 129.122 16.5135 129.5 15.8209C129.878 15.1085 130.464 14.5148 131.258 14.0399C132.051 13.565 133.053 13.2286 134.263 13.0307L139.309 12.1699V15.1382L134.972 15.9099C134.234 16.0484 133.686 16.2958 133.327 16.652C132.968 17.0082 132.789 17.4732 132.789 18.0471C132.789 18.6012 132.987 19.0464 133.384 19.3828C133.8 19.6994 134.31 19.8577 134.915 19.8577C135.69 19.8577 136.37 19.6895 136.956 19.3531C137.561 18.9969 138.024 18.5121 138.345 17.8987C138.686 17.2852 138.856 16.6124 138.856 15.8802V11.7247C138.856 11.0321 138.591 10.4582 138.062 10.0031C137.552 9.52815 136.871 9.29069 136.021 9.29069C135.227 9.29069 134.518 9.51825 133.894 9.97339C133.289 10.4087 132.845 10.9925 132.562 11.7247L129.528 10.1812C129.831 9.33026 130.303 8.59809 130.946 7.98465C131.607 7.35142 132.382 6.8567 133.271 6.50051C134.159 6.14432 135.123 5.96622 136.162 5.96622C137.429 5.96622 138.544 6.21358 139.508 6.70829C140.472 7.18321 141.218 7.85602 141.748 8.72671C142.296 9.57762 142.57 10.5769 142.57 11.7247V22.4698H139.054V19.7093L139.848 19.6499C139.451 20.3425 138.979 20.9263 138.43 21.4012C137.882 21.8564 137.259 22.2126 136.559 22.4698C135.86 22.7073 135.085 22.826 134.234 22.826Z" fill="#54321A"/>
<path d="M146.286 22.4698V6.32242H150V22.4698H146.286ZM146.286 4.51177V0.356191H150V4.51177H146.286Z" fill="#54321A"/>
<mask id="path-2-outside-1_44_341" maskUnits="userSpaceOnUse" x="164.79" y="0.526367" width="107" height="27" fill="black">
<rect fill="white" x="164.79" y="0.526367" width="107" height="27"/>
<path d="M175.504 7.13733L175.043 9.98734H166.79L167.251 7.13733H175.504ZM166.903 20.8174L169.297 6.14873C169.454 5.15717 169.773 4.33482 170.254 3.68169C170.742 3.02856 171.343 2.53872 172.057 2.21215C172.776 1.88559 173.554 1.72231 174.39 1.72231C174.959 1.72231 175.472 1.76684 175.931 1.8559C176.395 1.94496 176.732 2.02512 176.941 2.09637L175.835 4.94638C175.696 4.89888 175.524 4.85435 175.321 4.81279C175.118 4.77123 174.903 4.75045 174.677 4.75045C174.137 4.75045 173.74 4.88107 173.484 5.14232C173.235 5.39764 173.066 5.75686 172.979 6.21998L170.603 20.8174H166.903Z"/>
<path d="M185.057 14.9927L186.336 7.13733H190.045L187.816 20.8174H184.256L184.656 18.3325H184.517C184.105 19.1341 183.504 19.7783 182.715 20.2652C181.925 20.7521 181.029 20.9955 180.025 20.9955C179.131 20.9955 178.376 20.7877 177.761 20.3721C177.152 19.9565 176.719 19.3657 176.464 18.5997C176.209 17.8338 176.165 16.9164 176.333 15.8477L177.761 7.13733H181.47L180.164 15.1708C180.042 15.9783 180.152 16.6166 180.495 17.0857C180.837 17.5547 181.36 17.7893 182.062 17.7893C182.509 17.7893 182.941 17.6853 183.359 17.4775C183.783 17.2638 184.148 16.9491 184.456 16.5335C184.764 16.1178 184.964 15.6042 185.057 14.9927Z"/>
<path d="M195.798 12.9086L194.509 20.8174H190.809L193.038 7.13733H196.564L196.181 9.55094H196.329C196.752 8.74937 197.35 8.11702 198.122 7.6539C198.9 7.19077 199.785 6.95921 200.777 6.95921C201.706 6.95921 202.481 7.16702 203.102 7.58265C203.729 7.99827 204.17 8.58906 204.425 9.355C204.686 10.1209 204.73 11.0383 204.556 12.107L203.128 20.8174H199.419L200.734 12.7839C200.867 11.9467 200.763 11.2936 200.42 10.8245C200.084 10.3495 199.541 10.112 198.792 10.112C198.293 10.112 197.835 10.2219 197.417 10.4416C196.999 10.6613 196.648 10.9819 196.363 11.4034C196.085 11.8191 195.896 12.3208 195.798 12.9086Z"/>
<path d="M219.717 25.9474L220.892 18.6264H220.779C220.553 19.0064 220.251 19.3835 219.874 19.7575C219.496 20.1257 219.035 20.4315 218.489 20.6749C217.95 20.9183 217.32 21.0401 216.6 21.0401C215.585 21.0401 214.711 20.7729 213.98 20.2385C213.249 19.6982 212.726 18.9055 212.413 17.8605C212.105 16.8096 212.073 15.5211 212.317 13.9952C212.572 12.4277 213.031 11.1244 213.693 10.0853C214.354 9.04031 215.138 8.25952 216.043 7.74296C216.949 7.22046 217.889 6.95921 218.864 6.95921C219.613 6.95921 220.216 7.08983 220.675 7.35108C221.139 7.6064 221.496 7.92702 221.745 8.31296C221.995 8.69296 222.169 9.06703 222.268 9.43515H222.425L222.816 7.13733H226.473L223.426 25.9474H219.717ZM218.263 18.0208C218.861 18.0208 219.395 17.8546 219.865 17.5221C220.341 17.1836 220.736 16.7116 221.049 16.106C221.368 15.5003 221.595 14.7908 221.728 13.9774C221.862 13.1639 221.864 12.4574 221.737 11.8577C221.615 11.258 221.371 10.7948 221.005 10.4683C220.646 10.1417 220.167 9.97844 219.569 9.97844C218.954 9.97844 218.411 10.1477 217.941 10.4861C217.471 10.8245 217.079 11.2936 216.766 11.8933C216.452 12.493 216.232 13.1877 216.104 13.9774C215.976 14.773 215.971 15.4766 216.087 16.0882C216.209 16.6938 216.449 17.1688 216.809 17.5132C217.175 17.8516 217.66 18.0208 218.263 18.0208Z"/>
<path d="M236.746 14.9927L238.026 7.13733H241.734L239.506 20.8174H235.945L236.345 18.3325H236.206C235.794 19.1341 235.193 19.7783 234.404 20.2652C233.615 20.7521 232.718 20.9955 231.714 20.9955C230.82 20.9955 230.065 20.7877 229.45 20.3721C228.841 19.9565 228.408 19.3657 228.153 18.5997C227.898 17.8338 227.854 16.9164 228.022 15.8477L229.45 7.13733H233.159L231.853 15.1708C231.731 15.9783 231.841 16.6166 232.184 17.0857C232.526 17.5547 233.049 17.7893 233.751 17.7893C234.198 17.7893 234.63 17.6853 235.048 17.4775C235.472 17.2638 235.837 16.9491 236.145 16.5335C236.453 16.1178 236.653 15.6042 236.746 14.9927Z"/>
<path d="M242.472 20.8174L244.701 7.13733H248.409L246.181 20.8174H242.472ZM246.938 5.35607C246.387 5.35607 245.931 5.16904 245.571 4.79498C245.217 4.41497 245.072 3.96372 245.136 3.44122C245.2 2.90684 245.449 2.45559 245.885 2.08746C246.32 1.7134 246.813 1.52637 247.365 1.52637C247.916 1.52637 248.366 1.7134 248.714 2.08746C249.062 2.45559 249.208 2.90684 249.149 3.44122C249.091 3.96372 248.845 4.41497 248.409 4.79498C247.98 5.16904 247.49 5.35607 246.938 5.35607Z"/>
<path d="M249.108 20.8174L249.465 18.5552L257.344 10.2634L257.379 10.1655H251.058L251.554 7.13733H262.35L261.967 9.60437L254.506 17.6913L254.471 17.7893H260.844L260.365 20.8174H249.108Z"/>
<path d="M270.579 2.57731L268.176 15.3489H265.007L266.722 2.57731H270.579ZM265.887 21.049C265.3 21.049 264.819 20.8411 264.441 20.4255C264.07 20.0099 263.902 19.5052 263.936 18.9114C263.977 18.3236 264.218 17.8279 264.659 17.4241C265.106 17.0144 265.62 16.8096 266.2 16.8096C266.757 16.8096 267.227 17.0144 267.61 17.4241C267.993 17.8338 268.162 18.3296 268.115 18.9114C268.086 19.3033 267.961 19.6625 267.741 19.9891C267.526 20.3097 267.253 20.568 266.923 20.764C266.592 20.954 266.246 21.049 265.887 21.049Z"/>
</mask>
<path d="M175.504 7.13733L175.043 9.98734H166.79L167.251 7.13733H175.504ZM166.903 20.8174L169.297 6.14873C169.454 5.15717 169.773 4.33482 170.254 3.68169C170.742 3.02856 171.343 2.53872 172.057 2.21215C172.776 1.88559 173.554 1.72231 174.39 1.72231C174.959 1.72231 175.472 1.76684 175.931 1.8559C176.395 1.94496 176.732 2.02512 176.941 2.09637L175.835 4.94638C175.696 4.89888 175.524 4.85435 175.321 4.81279C175.118 4.77123 174.903 4.75045 174.677 4.75045C174.137 4.75045 173.74 4.88107 173.484 5.14232C173.235 5.39764 173.066 5.75686 172.979 6.21998L170.603 20.8174H166.903Z" fill="white"/>
<path d="M185.057 14.9927L186.336 7.13733H190.045L187.816 20.8174H184.256L184.656 18.3325H184.517C184.105 19.1341 183.504 19.7783 182.715 20.2652C181.925 20.7521 181.029 20.9955 180.025 20.9955C179.131 20.9955 178.376 20.7877 177.761 20.3721C177.152 19.9565 176.719 19.3657 176.464 18.5997C176.209 17.8338 176.165 16.9164 176.333 15.8477L177.761 7.13733H181.47L180.164 15.1708C180.042 15.9783 180.152 16.6166 180.495 17.0857C180.837 17.5547 181.36 17.7893 182.062 17.7893C182.509 17.7893 182.941 17.6853 183.359 17.4775C183.783 17.2638 184.148 16.9491 184.456 16.5335C184.764 16.1178 184.964 15.6042 185.057 14.9927Z" fill="white"/>
<path d="M195.798 12.9086L194.509 20.8174H190.809L193.038 7.13733H196.564L196.181 9.55094H196.329C196.752 8.74937 197.35 8.11702 198.122 7.6539C198.9 7.19077 199.785 6.95921 200.777 6.95921C201.706 6.95921 202.481 7.16702 203.102 7.58265C203.729 7.99827 204.17 8.58906 204.425 9.355C204.686 10.1209 204.73 11.0383 204.556 12.107L203.128 20.8174H199.419L200.734 12.7839C200.867 11.9467 200.763 11.2936 200.42 10.8245C200.084 10.3495 199.541 10.112 198.792 10.112C198.293 10.112 197.835 10.2219 197.417 10.4416C196.999 10.6613 196.648 10.9819 196.363 11.4034C196.085 11.8191 195.896 12.3208 195.798 12.9086Z" fill="white"/>
<path d="M219.717 25.9474L220.892 18.6264H220.779C220.553 19.0064 220.251 19.3835 219.874 19.7575C219.496 20.1257 219.035 20.4315 218.489 20.6749C217.95 20.9183 217.32 21.0401 216.6 21.0401C215.585 21.0401 214.711 20.7729 213.98 20.2385C213.249 19.6982 212.726 18.9055 212.413 17.8605C212.105 16.8096 212.073 15.5211 212.317 13.9952C212.572 12.4277 213.031 11.1244 213.693 10.0853C214.354 9.04031 215.138 8.25952 216.043 7.74296C216.949 7.22046 217.889 6.95921 218.864 6.95921C219.613 6.95921 220.216 7.08983 220.675 7.35108C221.139 7.6064 221.496 7.92702 221.745 8.31296C221.995 8.69296 222.169 9.06703 222.268 9.43515H222.425L222.816 7.13733H226.473L223.426 25.9474H219.717ZM218.263 18.0208C218.861 18.0208 219.395 17.8546 219.865 17.5221C220.341 17.1836 220.736 16.7116 221.049 16.106C221.368 15.5003 221.595 14.7908 221.728 13.9774C221.862 13.1639 221.864 12.4574 221.737 11.8577C221.615 11.258 221.371 10.7948 221.005 10.4683C220.646 10.1417 220.167 9.97844 219.569 9.97844C218.954 9.97844 218.411 10.1477 217.941 10.4861C217.471 10.8245 217.079 11.2936 216.766 11.8933C216.452 12.493 216.232 13.1877 216.104 13.9774C215.976 14.773 215.971 15.4766 216.087 16.0882C216.209 16.6938 216.449 17.1688 216.809 17.5132C217.175 17.8516 217.66 18.0208 218.263 18.0208Z" fill="white"/>
<path d="M236.746 14.9927L238.026 7.13733H241.734L239.506 20.8174H235.945L236.345 18.3325H236.206C235.794 19.1341 235.193 19.7783 234.404 20.2652C233.615 20.7521 232.718 20.9955 231.714 20.9955C230.82 20.9955 230.065 20.7877 229.45 20.3721C228.841 19.9565 228.408 19.3657 228.153 18.5997C227.898 17.8338 227.854 16.9164 228.022 15.8477L229.45 7.13733H233.159L231.853 15.1708C231.731 15.9783 231.841 16.6166 232.184 17.0857C232.526 17.5547 233.049 17.7893 233.751 17.7893C234.198 17.7893 234.63 17.6853 235.048 17.4775C235.472 17.2638 235.837 16.9491 236.145 16.5335C236.453 16.1178 236.653 15.6042 236.746 14.9927Z" fill="white"/>
<path d="M242.472 20.8174L244.701 7.13733H248.409L246.181 20.8174H242.472ZM246.938 5.35607C246.387 5.35607 245.931 5.16904 245.571 4.79498C245.217 4.41497 245.072 3.96372 245.136 3.44122C245.2 2.90684 245.449 2.45559 245.885 2.08746C246.32 1.7134 246.813 1.52637 247.365 1.52637C247.916 1.52637 248.366 1.7134 248.714 2.08746C249.062 2.45559 249.208 2.90684 249.149 3.44122C249.091 3.96372 248.845 4.41497 248.409 4.79498C247.98 5.16904 247.49 5.35607 246.938 5.35607Z" fill="white"/>
<path d="M249.108 20.8174L249.465 18.5552L257.344 10.2634L257.379 10.1655H251.058L251.554 7.13733H262.35L261.967 9.60437L254.506 17.6913L254.471 17.7893H260.844L260.365 20.8174H249.108Z" fill="white"/>
<path d="M270.579 2.57731L268.176 15.3489H265.007L266.722 2.57731H270.579ZM265.887 21.049C265.3 21.049 264.819 20.8411 264.441 20.4255C264.07 20.0099 263.902 19.5052 263.936 18.9114C263.977 18.3236 264.218 17.8279 264.659 17.4241C265.106 17.0144 265.62 16.8096 266.2 16.8096C266.757 16.8096 267.227 17.0144 267.61 17.4241C267.993 17.8338 268.162 18.3296 268.115 18.9114C268.086 19.3033 267.961 19.6625 267.741 19.9891C267.526 20.3097 267.253 20.568 266.923 20.764C266.592 20.954 266.246 21.049 265.887 21.049Z" fill="white"/>
<path d="M175.504 7.13733L175.043 9.98734H166.79L167.251 7.13733H175.504ZM166.903 20.8174L169.297 6.14873C169.454 5.15717 169.773 4.33482 170.254 3.68169C170.742 3.02856 171.343 2.53872 172.057 2.21215C172.776 1.88559 173.554 1.72231 174.39 1.72231C174.959 1.72231 175.472 1.76684 175.931 1.8559C176.395 1.94496 176.732 2.02512 176.941 2.09637L175.835 4.94638C175.696 4.89888 175.524 4.85435 175.321 4.81279C175.118 4.77123 174.903 4.75045 174.677 4.75045C174.137 4.75045 173.74 4.88107 173.484 5.14232C173.235 5.39764 173.066 5.75686 172.979 6.21998L170.603 20.8174H166.903Z" stroke="#54321A" stroke-width="2" mask="url(#path-2-outside-1_44_341)"/>
<path d="M185.057 14.9927L186.336 7.13733H190.045L187.816 20.8174H184.256L184.656 18.3325H184.517C184.105 19.1341 183.504 19.7783 182.715 20.2652C181.925 20.7521 181.029 20.9955 180.025 20.9955C179.131 20.9955 178.376 20.7877 177.761 20.3721C177.152 19.9565 176.719 19.3657 176.464 18.5997C176.209 17.8338 176.165 16.9164 176.333 15.8477L177.761 7.13733H181.47L180.164 15.1708C180.042 15.9783 180.152 16.6166 180.495 17.0857C180.837 17.5547 181.36 17.7893 182.062 17.7893C182.509 17.7893 182.941 17.6853 183.359 17.4775C183.783 17.2638 184.148 16.9491 184.456 16.5335C184.764 16.1178 184.964 15.6042 185.057 14.9927Z" stroke="#54321A" stroke-width="2" mask="url(#path-2-outside-1_44_341)"/>
<path d="M195.798 12.9086L194.509 20.8174H190.809L193.038 7.13733H196.564L196.181 9.55094H196.329C196.752 8.74937 197.35 8.11702 198.122 7.6539C198.9 7.19077 199.785 6.95921 200.777 6.95921C201.706 6.95921 202.481 7.16702 203.102 7.58265C203.729 7.99827 204.17 8.58906 204.425 9.355C204.686 10.1209 204.73 11.0383 204.556 12.107L203.128 20.8174H199.419L200.734 12.7839C200.867 11.9467 200.763 11.2936 200.42 10.8245C200.084 10.3495 199.541 10.112 198.792 10.112C198.293 10.112 197.835 10.2219 197.417 10.4416C196.999 10.6613 196.648 10.9819 196.363 11.4034C196.085 11.8191 195.896 12.3208 195.798 12.9086Z" stroke="#54321A" stroke-width="2" mask="url(#path-2-outside-1_44_341)"/>
<path d="M219.717 25.9474L220.892 18.6264H220.779C220.553 19.0064 220.251 19.3835 219.874 19.7575C219.496 20.1257 219.035 20.4315 218.489 20.6749C217.95 20.9183 217.32 21.0401 216.6 21.0401C215.585 21.0401 214.711 20.7729 213.98 20.2385C213.249 19.6982 212.726 18.9055 212.413 17.8605C212.105 16.8096 212.073 15.5211 212.317 13.9952C212.572 12.4277 213.031 11.1244 213.693 10.0853C214.354 9.04031 215.138 8.25952 216.043 7.74296C216.949 7.22046 217.889 6.95921 218.864 6.95921C219.613 6.95921 220.216 7.08983 220.675 7.35108C221.139 7.6064 221.496 7.92702 221.745 8.31296C221.995 8.69296 222.169 9.06703 222.268 9.43515H222.425L222.816 7.13733H226.473L223.426 25.9474H219.717ZM218.263 18.0208C218.861 18.0208 219.395 17.8546 219.865 17.5221C220.341 17.1836 220.736 16.7116 221.049 16.106C221.368 15.5003 221.595 14.7908 221.728 13.9774C221.862 13.1639 221.864 12.4574 221.737 11.8577C221.615 11.258 221.371 10.7948 221.005 10.4683C220.646 10.1417 220.167 9.97844 219.569 9.97844C218.954 9.97844 218.411 10.1477 217.941 10.4861C217.471 10.8245 217.079 11.2936 216.766 11.8933C216.452 12.493 216.232 13.1877 216.104 13.9774C215.976 14.773 215.971 15.4766 216.087 16.0882C216.209 16.6938 216.449 17.1688 216.809 17.5132C217.175 17.8516 217.66 18.0208 218.263 18.0208Z" stroke="#54321A" stroke-width="2" mask="url(#path-2-outside-1_44_341)"/>
<path d="M236.746 14.9927L238.026 7.13733H241.734L239.506 20.8174H235.945L236.345 18.3325H236.206C235.794 19.1341 235.193 19.7783 234.404 20.2652C233.615 20.7521 232.718 20.9955 231.714 20.9955C230.82 20.9955 230.065 20.7877 229.45 20.3721C228.841 19.9565 228.408 19.3657 228.153 18.5997C227.898 17.8338 227.854 16.9164 228.022 15.8477L229.45 7.13733H233.159L231.853 15.1708C231.731 15.9783 231.841 16.6166 232.184 17.0857C232.526 17.5547 233.049 17.7893 233.751 17.7893C234.198 17.7893 234.63 17.6853 235.048 17.4775C235.472 17.2638 235.837 16.9491 236.145 16.5335C236.453 16.1178 236.653 15.6042 236.746 14.9927Z" stroke="#54321A" stroke-width="2" mask="url(#path-2-outside-1_44_341)"/>
<path d="M242.472 20.8174L244.701 7.13733H248.409L246.181 20.8174H242.472ZM246.938 5.35607C246.387 5.35607 245.931 5.16904 245.571 4.79498C245.217 4.41497 245.072 3.96372 245.136 3.44122C245.2 2.90684 245.449 2.45559 245.885 2.08746C246.32 1.7134 246.813 1.52637 247.365 1.52637C247.916 1.52637 248.366 1.7134 248.714 2.08746C249.062 2.45559 249.208 2.90684 249.149 3.44122C249.091 3.96372 248.845 4.41497 248.409 4.79498C247.98 5.16904 247.49 5.35607 246.938 5.35607Z" stroke="#54321A" stroke-width="2" mask="url(#path-2-outside-1_44_341)"/>
<path d="M249.108 20.8174L249.465 18.5552L257.344 10.2634L257.379 10.1655H251.058L251.554 7.13733H262.35L261.967 9.60437L254.506 17.6913L254.471 17.7893H260.844L260.365 20.8174H249.108Z" stroke="#54321A" stroke-width="2" mask="url(#path-2-outside-1_44_341)"/>
<path d="M270.579 2.57731L268.176 15.3489H265.007L266.722 2.57731H270.579ZM265.887 21.049C265.3 21.049 264.819 20.8411 264.441 20.4255C264.07 20.0099 263.902 19.5052 263.936 18.9114C263.977 18.3236 264.218 17.8279 264.659 17.4241C265.106 17.0144 265.62 16.8096 266.2 16.8096C266.757 16.8096 267.227 17.0144 267.61 17.4241C267.993 17.8338 268.162 18.3296 268.115 18.9114C268.086 19.3033 267.961 19.6625 267.741 19.9891C267.526 20.3097 267.253 20.568 266.923 20.764C266.592 20.954 266.246 21.049 265.887 21.049Z" stroke="#54321A" stroke-width="2" mask="url(#path-2-outside-1_44_341)"/>
</svg>
