<svg width="32" height="32" viewBox="0 0 32 32" fill="none" xmlns="http://www.w3.org/2000/svg">
<rect width="32" height="32" rx="16" fill="#C1A999"/>
<mask id="mask0_46_211" style="mask-type:alpha" maskUnits="userSpaceOnUse" x="10" y="10" width="12" height="12">
<path d="M10.4117 14.2198C10.3451 14.242 10.2861 14.2824 10.2414 14.3365C10.1966 14.3906 10.1679 14.4561 10.1586 14.5257C10.1493 14.5953 10.1596 14.6661 10.1885 14.73C10.2174 14.794 10.2637 14.8485 10.3221 14.8875L13.6383 16.7155C13.7001 16.7496 13.7702 16.7655 13.8407 16.7615C13.9111 16.7575 13.979 16.7336 14.0365 16.6927L17.5595 14.1806C17.7298 14.0666 17.9334 14.2702 17.8194 14.4404L15.3072 17.9634C15.2663 18.0209 15.2425 18.0888 15.2385 18.1593C15.2344 18.2297 15.2503 18.2999 15.2844 18.3617L17.1125 21.6778C17.1514 21.7362 17.206 21.7825 17.2699 21.8114C17.3339 21.8403 17.4047 21.8507 17.4743 21.8413C17.5438 21.832 17.6094 21.8033 17.6634 21.7586C17.7175 21.7138 17.7579 21.6548 17.7801 21.5882L21.2273 11.2468C21.2492 11.1808 21.2524 11.1099 21.2363 11.0422C21.2203 10.9745 21.1858 10.9126 21.1366 10.8634C21.0874 10.8142 21.0255 10.7796 20.9577 10.7636C20.89 10.7476 20.8192 10.7507 20.7532 10.7727L10.4117 14.2198Z" fill="white"/>
</mask>
<g mask="url(#mask0_46_211)">
<rect x="10" y="10" width="12" height="12" fill="white"/>
</g>
</svg>
