<svg width="500" height="154" viewBox="0 0 500 154" fill="none" xmlns="http://www.w3.org/2000/svg">
<path d="M17.7222 72.8332L0 20.4933H13.0784L26.062 60.2293L21.513 60.1331L35.3495 20.4933H46.343L60.0847 60.1331L55.5357 60.2293L68.5193 20.4933H81.5977L63.8756 72.8332H52.7874L38.7613 31.3654H42.9312L28.7156 72.8332H17.7222Z" fill="#54321A"/>
<path d="M103.137 73.9877C99.5361 73.9877 96.4086 73.3784 93.755 72.1597C91.1015 70.941 89.0481 69.2091 87.5949 66.9642C86.1418 64.6551 85.4152 61.9932 85.4152 58.9785C85.4152 56.0921 86.047 53.5264 87.3106 51.2815C88.5742 48.9724 90.5328 47.0481 93.1864 45.5087C95.84 43.9693 99.1886 42.8789 103.232 42.2375L120.101 39.4473V49.0686L105.601 51.5701C103.137 52.0191 101.305 52.8209 100.105 53.9754C98.9043 55.13 98.304 56.6373 98.304 58.4974C98.304 60.2934 98.9674 61.7366 100.294 62.827C101.684 63.8533 103.39 64.3664 105.412 64.3664C108.002 64.3664 110.277 63.8212 112.235 62.7308C114.257 61.5763 115.805 60.0048 116.879 58.0164C118.016 56.028 118.585 53.8472 118.585 51.4739V38.0041C118.585 35.7591 117.7 33.899 115.931 32.4237C114.226 30.8843 111.951 30.1146 109.108 30.1146C106.454 30.1146 104.085 30.8523 102 32.3275C99.9783 33.7387 98.4936 35.6308 97.5459 38.0041L87.4054 33.001C88.4163 30.2429 89.9958 27.8697 92.1439 25.8813C94.3553 23.8287 96.9457 22.2252 99.9151 21.0706C102.885 19.9161 106.107 19.3388 109.582 19.3388C113.815 19.3388 117.543 20.1406 120.765 21.7441C123.987 23.2835 126.483 25.4643 128.252 28.2866C130.084 31.0447 131 34.2839 131 38.0041V72.8332H119.248V63.8854L121.902 63.6929C120.575 65.9379 118.996 67.8301 117.163 69.3695C115.331 70.8448 113.246 71.9993 110.909 72.8332C108.571 73.6029 105.98 73.9877 103.137 73.9877Z" fill="#54321A"/>
<path d="M143.422 72.8332V20.4933H155.079V30.7881L154.131 28.9601C155.332 25.8171 157.291 23.4439 160.007 21.8403C162.787 20.1726 166.009 19.3388 169.674 19.3388C173.465 19.3388 176.813 20.1726 179.72 21.8403C182.689 23.508 184.995 25.8492 186.638 28.8639C188.281 31.8144 189.102 35.246 189.102 39.1586V72.8332H176.687V42.1413C176.687 39.8321 176.245 37.8437 175.36 36.176C174.476 34.5084 173.244 33.2255 171.664 32.3275C170.148 31.3654 168.347 30.8843 166.262 30.8843C164.24 30.8843 162.44 31.3654 160.86 32.3275C159.281 33.2255 158.049 34.5084 157.164 36.176C156.28 37.8437 155.837 39.8321 155.837 42.1413V72.8332H143.422Z" fill="#54321A"/>
<path d="M225.567 94C221.713 94 218.144 93.3586 214.858 92.0757C211.573 90.7929 208.73 88.9969 206.329 86.6878C203.991 84.4429 202.285 81.781 201.211 78.7021L212.773 74.2764C213.531 76.7137 215.016 78.6701 217.227 80.1453C219.502 81.6847 222.282 82.4545 225.567 82.4545C228.094 82.4545 230.306 81.9734 232.201 81.0113C234.16 80.0491 235.676 78.638 236.75 76.7779C237.824 74.9819 238.361 72.8011 238.361 70.2354V58.305L240.731 61.1914C238.962 64.3344 236.592 66.7076 233.623 68.3112C230.653 69.9147 227.273 70.7165 223.482 70.7165C218.681 70.7165 214.384 69.594 210.593 67.349C206.803 65.1041 203.833 62.0252 201.685 58.1126C199.537 54.1999 198.463 49.8062 198.463 44.9314C198.463 39.9925 199.537 35.5988 201.685 31.7503C203.833 27.9017 206.771 24.8871 210.499 22.7062C214.226 20.4613 218.459 19.3388 223.198 19.3388C227.052 19.3388 230.432 20.1726 233.338 21.8403C236.308 23.4439 238.772 25.7851 240.731 28.8639L239.025 32.0389V20.4933H250.776V70.2354C250.776 74.7895 249.671 78.8625 247.459 82.4545C245.311 86.0464 242.342 88.8686 238.551 90.9212C234.823 92.9737 230.495 94 225.567 94ZM224.999 59.0747C227.652 59.0747 229.958 58.4974 231.917 57.3429C233.939 56.1242 235.518 54.4565 236.655 52.3398C237.793 50.2231 238.361 47.7857 238.361 45.0276C238.361 42.3337 237.761 39.9284 236.561 37.8117C235.423 35.6308 233.844 33.9311 231.822 32.7124C229.864 31.4937 227.589 30.8843 224.999 30.8843C222.408 30.8843 220.071 31.4937 217.986 32.7124C215.901 33.9311 214.258 35.6308 213.057 37.8117C211.92 39.9284 211.352 42.3337 211.352 45.0276C211.352 47.7216 211.92 50.1269 213.057 52.2436C214.258 54.3603 215.869 56.028 217.891 57.2467C219.976 58.4654 222.345 59.0747 224.999 59.0747Z" fill="#54321A"/>
<path d="M282.936 73.9877C277.439 73.9877 272.638 72.6728 268.531 70.043C264.487 67.349 261.708 63.725 260.191 59.1709L269.479 54.6489C270.806 57.5995 272.638 59.9086 274.975 61.5763C277.376 63.2439 280.03 64.0778 282.936 64.0778C285.211 64.0778 287.011 63.5647 288.338 62.5384C289.665 61.5121 290.328 60.1651 290.328 58.4974C290.328 57.4712 290.044 56.6373 289.475 55.9959C288.97 55.2903 288.243 54.7131 287.296 54.2641C286.411 53.7509 285.432 53.334 284.358 53.0133L275.923 50.608C271.564 49.3251 268.247 47.3688 265.972 44.739C263.761 42.1092 262.655 38.9983 262.655 35.4063C262.655 32.1992 263.445 29.4091 265.025 27.0358C266.667 24.5984 268.91 22.7062 271.753 21.3593C274.66 20.0123 277.977 19.3388 281.704 19.3388C286.569 19.3388 290.865 20.5254 294.593 22.8987C298.321 25.2719 300.974 28.6073 302.554 32.9048L293.077 37.4268C292.192 35.0536 290.707 33.1614 288.622 31.7503C286.537 30.3391 284.2 29.6336 281.609 29.6336C279.524 29.6336 277.882 30.1146 276.681 31.0768C275.481 32.0389 274.881 33.2897 274.881 34.8291C274.881 35.7912 275.133 36.625 275.639 37.3306C276.144 38.0362 276.839 38.6134 277.724 39.0624C278.672 39.5114 279.746 39.9284 280.946 40.3132L289.191 42.8147C293.424 44.0976 296.678 46.0218 298.952 48.5875C301.29 51.1532 302.459 54.2961 302.459 58.0164C302.459 61.1593 301.638 63.9495 299.995 66.3869C298.352 68.7602 296.078 70.6203 293.171 71.9673C290.265 73.3142 286.853 73.9877 282.936 73.9877Z" fill="#54321A"/>
<path d="M331.333 73.9877C327.353 73.9877 323.878 73.0897 320.908 71.2938C318.002 69.4978 315.759 66.9962 314.179 63.7892C312.663 60.5821 311.905 56.8298 311.905 52.5322V20.4933H324.32V51.4739C324.32 53.6547 324.731 55.579 325.552 57.2467C326.436 58.8502 327.669 60.1331 329.248 61.0952C330.891 61.9932 332.723 62.4422 334.745 62.4422C336.767 62.4422 338.567 61.9932 340.147 61.0952C341.726 60.1331 342.958 58.8182 343.843 57.1505C344.727 55.4828 345.17 53.4944 345.17 51.1853V20.4933H357.585V72.8332H345.833V62.5384L346.875 64.3664C345.675 67.5735 343.685 69.9788 340.905 71.5824C338.188 73.1859 334.997 73.9877 331.333 73.9877Z" fill="#54321A"/>
<path d="M370.073 72.8332V0H382.488V72.8332H370.073Z" fill="#54321A"/>
<path d="M400.774 72.8332V59.3634H413.284V72.8332H400.774Z" fill="#FF0000"/>
<path d="M447.3 73.9877C443.699 73.9877 440.571 73.3784 437.918 72.1597C435.264 70.941 433.211 69.2091 431.758 66.9642C430.304 64.6551 429.578 61.9932 429.578 58.9785C429.578 56.0921 430.21 53.5264 431.473 51.2815C432.737 48.9724 434.695 47.0481 437.349 45.5087C440.003 43.9693 443.351 42.8789 447.395 42.2375L464.264 39.4473V49.0686L449.764 51.5701C447.3 52.0191 445.468 52.8209 444.267 53.9754C443.067 55.13 442.467 56.6373 442.467 58.4974C442.467 60.2934 443.13 61.7366 444.457 62.827C445.847 63.8533 447.553 64.3664 449.574 64.3664C452.165 64.3664 454.439 63.8212 456.398 62.7308C458.42 61.5763 459.968 60.0048 461.042 58.0164C462.179 56.028 462.748 53.8472 462.748 51.4739V38.0041C462.748 35.7591 461.863 33.899 460.094 32.4237C458.388 30.8843 456.114 30.1146 453.271 30.1146C450.617 30.1146 448.248 30.8523 446.163 32.3275C444.141 33.7387 442.656 35.6308 441.708 38.0041L431.568 33.001C432.579 30.2429 434.158 27.8697 436.307 25.8813C438.518 23.8287 441.108 22.2252 444.078 21.0706C447.047 19.9161 450.269 19.3388 453.744 19.3388C457.977 19.3388 461.705 20.1406 464.927 21.7441C468.15 23.2835 470.645 25.4643 472.414 28.2866C474.246 31.0447 475.163 34.2839 475.163 38.0041V72.8332H463.411V63.8854L466.065 63.6929C464.738 65.9379 463.158 67.8301 461.326 69.3695C459.494 70.8448 457.409 71.9993 455.071 72.8332C452.733 73.6029 450.143 73.9877 447.3 73.9877Z" fill="#54321A"/>
<path d="M487.585 72.8332V20.4933H500V72.8332H487.585ZM487.585 14.6244V1.15455H500V14.6244H487.585Z" fill="#54321A"/>
<path d="M48.978 135.297H46.6849C46.5492 134.625 46.3119 134.034 45.9729 133.525C45.64 133.016 45.2332 132.588 44.7523 132.243C44.2777 131.891 43.7506 131.627 43.1712 131.451C42.5917 131.275 41.9876 131.187 41.3589 131.187C40.2123 131.187 39.1736 131.482 38.2428 132.073C37.3181 132.664 36.5815 133.534 36.0329 134.684C35.4904 135.834 35.2192 137.245 35.2192 138.917C35.2192 140.589 35.4904 142 36.0329 143.15C36.5815 144.3 37.3181 145.17 38.2428 145.761C39.1736 146.352 40.2123 146.647 41.3589 146.647C41.9876 146.647 42.5917 146.559 43.1712 146.383C43.7506 146.207 44.2777 145.946 44.7523 145.601C45.2332 145.249 45.64 144.818 45.9729 144.309C46.3119 143.794 46.5492 143.203 46.6849 142.537H48.978C48.8054 143.524 48.491 144.407 48.0349 145.186C47.5787 145.965 47.0116 146.628 46.3335 147.175C45.6554 147.715 44.8941 148.127 44.0496 148.41C43.2112 148.693 42.3143 148.834 41.3589 148.834C39.7438 148.834 38.3075 148.432 37.05 147.627C35.7925 146.823 34.8031 145.679 34.0818 144.196C33.3606 142.713 33 140.953 33 138.917C33 136.881 33.3606 135.121 34.0818 133.638C34.8031 132.155 35.7925 131.011 37.05 130.207C38.3075 129.402 39.7438 129 41.3589 129C42.3143 129 43.2112 129.141 44.0496 129.424C44.8941 129.707 45.6554 130.122 46.3335 130.669C47.0116 131.209 47.5787 131.869 48.0349 132.648C48.491 133.421 48.8054 134.304 48.978 135.297Z" fill="#54321A"/>
<path d="M54.8302 139.86V148.57H52.648V129.264H54.8302V136.353H55.0151C55.348 135.605 55.8473 135.011 56.5131 134.571C57.185 134.125 58.0788 133.902 59.1946 133.902C60.1624 133.902 61.01 134.1 61.7374 134.496C62.4648 134.885 63.0288 135.486 63.4295 136.296C63.8363 137.101 64.0398 138.125 64.0398 139.37V148.57H61.8576V139.52C61.8576 138.37 61.5648 137.481 60.9792 136.853C60.3997 136.218 59.5953 135.9 58.5658 135.9C57.8507 135.9 57.2097 136.054 56.6425 136.362C56.0816 136.67 55.6377 137.12 55.311 137.71C54.9905 138.301 54.8302 139.018 54.8302 139.86Z" fill="#54321A"/>
<path d="M72.4718 148.91C71.5718 148.91 70.755 148.737 70.0214 148.391C69.2879 148.039 68.7053 147.533 68.2738 146.873C67.8423 146.207 67.6266 145.403 67.6266 144.46C67.6266 143.63 67.7868 142.958 68.1074 142.443C68.4279 141.921 68.8564 141.513 69.3927 141.217C69.929 140.922 70.5207 140.702 71.168 140.557C71.8214 140.406 72.4779 140.287 73.1375 140.199C74.0005 140.086 74.7002 140.001 75.2365 139.945C75.7789 139.882 76.1734 139.778 76.42 139.633C76.6728 139.489 76.7991 139.238 76.7991 138.879V138.804C76.7991 137.874 76.5495 137.151 76.0502 136.636C75.557 136.12 74.808 135.863 73.8033 135.863C72.7615 135.863 71.9447 136.095 71.3529 136.56C70.7611 137.025 70.3451 137.522 70.1046 138.05L68.0334 137.296C68.4033 136.416 68.8964 135.731 69.5129 135.241C70.1355 134.744 70.8135 134.398 71.5471 134.204C72.2868 134.003 73.0142 133.902 73.7293 133.902C74.1854 133.902 74.7094 133.959 75.3012 134.072C75.8991 134.178 76.4755 134.402 77.0303 134.741C77.5912 135.08 78.0567 135.593 78.4265 136.278C78.7964 136.963 78.9813 137.88 78.9813 139.03V148.57H76.7991V146.609H76.6882C76.5402 146.924 76.2936 147.26 75.9484 147.618C75.6032 147.976 75.144 148.281 74.5707 148.532C73.9974 148.784 73.2978 148.91 72.4718 148.91ZM72.8046 146.911C73.6676 146.911 74.395 146.738 74.9868 146.393C75.5848 146.047 76.0347 145.601 76.3368 145.054C76.645 144.507 76.7991 143.932 76.7991 143.329V141.293C76.7067 141.406 76.5032 141.509 76.1889 141.604C75.8806 141.692 75.5231 141.77 75.1163 141.839C74.7156 141.902 74.3241 141.959 73.9419 142.009C73.5659 142.053 73.2608 142.091 73.0265 142.122C72.4594 142.198 71.9293 142.32 71.4361 142.49C70.9492 142.653 70.5546 142.901 70.2526 143.235C69.9567 143.561 69.8088 144.008 69.8088 144.573C69.8088 145.346 70.0892 145.931 70.6502 146.327C71.2173 146.716 71.9355 146.911 72.8046 146.911Z" fill="#54321A"/>
<path d="M89.4013 134.09V135.976H82.0411V134.09H89.4013ZM84.1863 130.621H86.3685V144.422C86.3685 145.051 86.4578 145.522 86.6366 145.836C86.8215 146.144 87.0558 146.352 87.3393 146.459C87.6291 146.559 87.9342 146.609 88.2547 146.609C88.4952 146.609 88.6924 146.597 88.8465 146.572C89.0006 146.54 89.1239 146.515 89.2164 146.496L89.6602 148.495C89.5123 148.551 89.3058 148.608 89.0407 148.664C88.7756 148.727 88.4397 148.759 88.0328 148.759C87.4164 148.759 86.8123 148.624 86.2205 148.353C85.6349 148.083 85.1479 147.671 84.7596 147.118C84.3774 146.565 84.1863 145.868 84.1863 145.026V130.621Z" fill="#54321A"/>
<path d="M93.5452 148.57V129.264H95.7274V136.391H95.9123C96.0726 136.139 96.2945 135.819 96.5781 135.429C96.8678 135.033 97.2808 134.681 97.8171 134.373C98.3596 134.059 99.0931 133.902 100.018 133.902C101.214 133.902 102.268 134.207 103.18 134.816C104.092 135.426 104.804 136.29 105.316 137.409C105.828 138.527 106.084 139.847 106.084 141.368C106.084 142.901 105.828 144.231 105.316 145.356C104.804 146.474 104.096 147.342 103.189 147.957C102.283 148.567 101.238 148.872 100.055 148.872C99.1425 148.872 98.412 148.718 97.8634 148.41C97.3147 148.096 96.8925 147.741 96.5966 147.345C96.3007 146.942 96.0726 146.609 95.9123 146.345H95.6534V148.57H93.5452ZM95.6904 141.33C95.6904 142.424 95.8476 143.389 96.162 144.224C96.4764 145.054 96.9356 145.704 97.5397 146.176C98.1438 146.641 98.8836 146.873 99.7589 146.873C100.671 146.873 101.433 146.628 102.043 146.138C102.659 145.642 103.122 144.975 103.43 144.14C103.744 143.297 103.901 142.361 103.901 141.33C103.901 140.312 103.747 139.395 103.439 138.578C103.137 137.754 102.678 137.104 102.061 136.626C101.451 136.142 100.684 135.9 99.7589 135.9C98.8712 135.9 98.1253 136.13 97.5212 136.589C96.9171 137.041 96.461 137.676 96.1528 138.493C95.8445 139.304 95.6904 140.249 95.6904 141.33Z" fill="#54321A"/>
<path d="M115.452 148.872C114.17 148.872 113.045 148.561 112.077 147.939C111.115 147.316 110.363 146.446 109.821 145.327C109.284 144.209 109.016 142.901 109.016 141.406C109.016 139.897 109.284 138.581 109.821 137.456C110.363 136.331 111.115 135.457 112.077 134.835C113.045 134.213 114.17 133.902 115.452 133.902C116.734 133.902 117.856 134.213 118.817 134.835C119.785 135.457 120.537 136.331 121.074 137.456C121.616 138.581 121.887 139.897 121.887 141.406C121.887 142.901 121.616 144.209 121.074 145.327C120.537 146.446 119.785 147.316 118.817 147.939C117.856 148.561 116.734 148.872 115.452 148.872ZM115.452 146.873C116.426 146.873 117.227 146.619 117.856 146.11C118.485 145.601 118.95 144.931 119.252 144.102C119.554 143.272 119.705 142.374 119.705 141.406C119.705 140.438 119.554 139.536 119.252 138.7C118.95 137.864 118.485 137.189 117.856 136.673C117.227 136.158 116.426 135.9 115.452 135.9C114.478 135.9 113.676 136.158 113.048 136.673C112.419 137.189 111.953 137.864 111.651 138.7C111.349 139.536 111.198 140.438 111.198 141.406C111.198 142.374 111.349 143.272 111.651 144.102C111.953 144.931 112.419 145.601 113.048 146.11C113.676 146.619 114.478 146.873 115.452 146.873Z" fill="#54321A"/>
<path d="M131.655 134.09V135.976H124.295V134.09H131.655ZM126.44 130.621H128.623V144.422C128.623 145.051 128.712 145.522 128.891 145.836C129.076 146.144 129.31 146.352 129.593 146.459C129.883 146.559 130.188 146.609 130.509 146.609C130.749 146.609 130.947 146.597 131.101 146.572C131.255 146.54 131.378 146.515 131.471 146.496L131.914 148.495C131.766 148.551 131.56 148.608 131.295 148.664C131.03 148.727 130.694 148.759 130.287 148.759C129.671 148.759 129.066 148.624 128.475 148.353C127.889 148.083 127.402 147.671 127.014 147.118C126.631 146.565 126.44 145.868 126.44 145.026V130.621Z" fill="#54321A"/>
<path d="M143.078 148.57V129.264H149.476C150.962 129.264 152.176 129.537 153.12 130.084C154.069 130.625 154.772 131.357 155.228 132.281C155.684 133.204 155.912 134.235 155.912 135.373C155.912 136.51 155.684 137.544 155.228 138.474C154.778 139.404 154.081 140.146 153.138 140.699C152.195 141.245 150.987 141.519 149.513 141.519H144.927V139.445H149.439C150.457 139.445 151.273 139.266 151.89 138.908C152.506 138.549 152.953 138.065 153.231 137.456C153.514 136.84 153.656 136.146 153.656 135.373C153.656 134.6 153.514 133.908 153.231 133.299C152.953 132.689 152.503 132.211 151.881 131.866C151.258 131.514 150.432 131.338 149.402 131.338H145.371V148.57H143.078Z" fill="#54321A"/>
<path d="M165.373 148.872C164.004 148.872 162.824 148.564 161.831 147.948C160.845 147.326 160.084 146.459 159.547 145.346C159.017 144.228 158.752 142.927 158.752 141.443C158.752 139.96 159.017 138.653 159.547 137.522C160.084 136.384 160.83 135.498 161.785 134.863C162.747 134.222 163.869 133.902 165.151 133.902C165.891 133.902 166.621 134.028 167.342 134.279C168.063 134.53 168.72 134.939 169.312 135.505C169.904 136.064 170.375 136.805 170.726 137.729C171.078 138.653 171.253 139.791 171.253 141.142V142.084H160.306V140.161H169.034C169.034 139.344 168.874 138.615 168.554 137.974C168.239 137.333 167.789 136.827 167.204 136.457C166.624 136.086 165.94 135.9 165.151 135.9C164.282 135.9 163.53 136.12 162.895 136.56C162.266 136.994 161.782 137.56 161.443 138.257C161.104 138.955 160.934 139.703 160.934 140.501V141.783C160.934 142.876 161.119 143.803 161.489 144.564C161.865 145.318 162.386 145.893 163.052 146.289C163.718 146.678 164.491 146.873 165.373 146.873C165.946 146.873 166.464 146.792 166.926 146.628C167.395 146.459 167.798 146.207 168.137 145.874C168.476 145.535 168.738 145.114 168.923 144.611L171.032 145.214C170.81 145.943 170.437 146.584 169.913 147.137C169.389 147.684 168.742 148.111 167.971 148.419C167.2 148.721 166.334 148.872 165.373 148.872Z" fill="#54321A"/>
<path d="M174.833 154V134.09H176.942V136.391H177.2C177.361 136.139 177.583 135.819 177.866 135.429C178.156 135.033 178.569 134.681 179.105 134.373C179.648 134.059 180.381 133.902 181.306 133.902C182.502 133.902 183.556 134.207 184.468 134.816C185.381 135.426 186.093 136.29 186.604 137.409C187.116 138.527 187.372 139.847 187.372 141.368C187.372 142.901 187.116 144.231 186.604 145.356C186.093 146.474 185.384 147.342 184.477 147.957C183.571 148.567 182.526 148.872 181.343 148.872C180.431 148.872 179.7 148.718 179.152 148.41C178.603 148.096 178.181 147.741 177.885 147.345C177.589 146.942 177.361 146.609 177.2 146.345H177.016V154H174.833ZM176.979 141.33C176.979 142.424 177.136 143.389 177.45 144.224C177.765 145.054 178.224 145.704 178.828 146.176C179.432 146.641 180.172 146.873 181.047 146.873C181.959 146.873 182.721 146.628 183.331 146.138C183.947 145.642 184.41 144.975 184.718 144.14C185.032 143.297 185.189 142.361 185.189 141.33C185.189 140.312 185.035 139.395 184.727 138.578C184.425 137.754 183.966 137.104 183.349 136.626C182.739 136.142 181.972 135.9 181.047 135.9C180.159 135.9 179.413 136.13 178.809 136.589C178.205 137.041 177.749 137.676 177.441 138.493C177.133 139.304 176.979 140.249 176.979 141.33Z" fill="#54321A"/>
<path d="M195.14 148.91C194.24 148.91 193.423 148.737 192.69 148.391C191.956 148.039 191.374 147.533 190.942 146.873C190.511 146.207 190.295 145.403 190.295 144.46C190.295 143.63 190.455 142.958 190.776 142.443C191.096 141.921 191.525 141.513 192.061 141.217C192.597 140.922 193.189 140.702 193.836 140.557C194.49 140.406 195.146 140.287 195.806 140.199C196.669 140.086 197.369 140.001 197.905 139.945C198.447 139.882 198.842 139.778 199.089 139.633C199.341 139.489 199.468 139.238 199.468 138.879V138.804C199.468 137.874 199.218 137.151 198.719 136.636C198.225 136.12 197.477 135.863 196.472 135.863C195.43 135.863 194.613 136.095 194.021 136.56C193.43 137.025 193.014 137.522 192.773 138.05L190.702 137.296C191.072 136.416 191.565 135.731 192.181 135.241C192.804 134.744 193.482 134.398 194.216 134.204C194.955 134.003 195.683 133.902 196.398 133.902C196.854 133.902 197.378 133.959 197.97 134.072C198.568 134.178 199.144 134.402 199.699 134.741C200.26 135.08 200.725 135.593 201.095 136.278C201.465 136.963 201.65 137.88 201.65 139.03V148.57H199.468V146.609H199.357C199.209 146.924 198.962 147.26 198.617 147.618C198.272 147.976 197.812 148.281 197.239 148.532C196.666 148.784 195.966 148.91 195.14 148.91ZM195.473 146.911C196.336 146.911 197.063 146.738 197.655 146.393C198.253 146.047 198.703 145.601 199.005 145.054C199.314 144.507 199.468 143.932 199.468 143.329V141.293C199.375 141.406 199.172 141.509 198.857 141.604C198.549 141.692 198.192 141.77 197.785 141.839C197.384 141.902 196.993 141.959 196.61 142.009C196.234 142.053 195.929 142.091 195.695 142.122C195.128 142.198 194.598 142.32 194.105 142.49C193.618 142.653 193.223 142.901 192.921 143.235C192.625 143.561 192.477 144.008 192.477 144.573C192.477 145.346 192.758 145.931 193.319 146.327C193.886 146.716 194.604 146.911 195.473 146.911Z" fill="#54321A"/>
<path d="M207.927 143.291L207.89 140.538H208.334L214.548 134.09H217.248L210.627 140.916H210.442L207.927 143.291ZM205.893 148.57V129.264H208.075V148.57H205.893ZM214.918 148.57L209.37 141.406L210.923 139.86L217.692 148.57H214.918Z" fill="#54321A"/>
<path d="M228.196 148.57V129.264H234.817C236.136 129.264 237.224 129.496 238.081 129.962C238.938 130.42 239.576 131.039 239.995 131.819C240.414 132.592 240.624 133.449 240.624 134.392C240.624 135.222 240.479 135.907 240.189 136.447C239.906 136.988 239.53 137.415 239.061 137.729C238.599 138.043 238.096 138.276 237.554 138.427V138.615C238.133 138.653 238.716 138.86 239.301 139.238C239.887 139.615 240.377 140.155 240.772 140.859C241.166 141.563 241.363 142.424 241.363 143.442C241.363 144.41 241.148 145.28 240.716 146.053C240.285 146.826 239.604 147.439 238.673 147.891C237.742 148.344 236.531 148.57 235.039 148.57H228.196ZM230.49 146.496H235.039C236.537 146.496 237.6 146.201 238.229 145.61C238.864 145.013 239.181 144.29 239.181 143.442C239.181 142.788 239.018 142.185 238.691 141.632C238.364 141.073 237.899 140.626 237.295 140.293C236.691 139.954 235.976 139.784 235.15 139.784H230.49V146.496ZM230.49 137.748H234.743C235.433 137.748 236.056 137.61 236.611 137.333C237.172 137.057 237.616 136.667 237.942 136.164C238.275 135.662 238.442 135.071 238.442 134.392C238.442 133.544 238.152 132.824 237.572 132.233C236.993 131.636 236.074 131.338 234.817 131.338H230.49V137.748Z" fill="#54321A"/>
<path d="M249.275 148.91C248.375 148.91 247.559 148.737 246.825 148.391C246.091 148.039 245.509 147.533 245.077 146.873C244.646 146.207 244.43 145.403 244.43 144.46C244.43 143.63 244.59 142.958 244.911 142.443C245.231 141.921 245.66 141.513 246.196 141.217C246.733 140.922 247.324 140.702 247.972 140.557C248.625 140.406 249.281 140.287 249.941 140.199C250.804 140.086 251.504 140.001 252.04 139.945C252.582 139.882 252.977 139.778 253.224 139.633C253.476 139.489 253.603 139.238 253.603 138.879V138.804C253.603 137.874 253.353 137.151 252.854 136.636C252.361 136.12 251.612 135.863 250.607 135.863C249.565 135.863 248.748 136.095 248.156 136.56C247.565 137.025 247.149 137.522 246.908 138.05L244.837 137.296C245.207 136.416 245.7 135.731 246.316 135.241C246.939 134.744 247.617 134.398 248.351 134.204C249.09 134.003 249.818 133.902 250.533 133.902C250.989 133.902 251.513 133.959 252.105 134.072C252.703 134.178 253.279 134.402 253.834 134.741C254.395 135.08 254.86 135.593 255.23 136.278C255.6 136.963 255.785 137.88 255.785 139.03V148.57H253.603V146.609H253.492C253.344 146.924 253.097 147.26 252.752 147.618C252.407 147.976 251.948 148.281 251.374 148.532C250.801 148.784 250.101 148.91 249.275 148.91ZM249.608 146.911C250.471 146.911 251.199 146.738 251.79 146.393C252.388 146.047 252.838 145.601 253.14 145.054C253.449 144.507 253.603 143.932 253.603 143.329V141.293C253.51 141.406 253.307 141.509 252.992 141.604C252.684 141.692 252.327 141.77 251.92 141.839C251.519 141.902 251.128 141.959 250.746 142.009C250.369 142.053 250.064 142.091 249.83 142.122C249.263 142.198 248.733 142.32 248.24 142.49C247.753 142.653 247.358 142.901 247.056 143.235C246.76 143.561 246.612 144.008 246.612 144.573C246.612 145.346 246.893 145.931 247.454 146.327C248.021 146.716 248.739 146.911 249.608 146.911Z" fill="#54321A"/>
<path d="M270.088 137.333L268.128 137.899C268.005 137.566 267.823 137.242 267.583 136.928C267.348 136.607 267.028 136.344 266.621 136.136C266.214 135.929 265.693 135.825 265.058 135.825C264.189 135.825 263.465 136.029 262.885 136.438C262.312 136.84 262.025 137.352 262.025 137.974C262.025 138.527 262.223 138.964 262.617 139.285C263.012 139.605 263.628 139.872 264.467 140.086L266.575 140.614C267.845 140.928 268.791 141.409 269.413 142.056C270.036 142.697 270.347 143.524 270.347 144.535C270.347 145.365 270.113 146.107 269.645 146.76C269.182 147.414 268.535 147.929 267.703 148.306C266.871 148.683 265.903 148.872 264.799 148.872C263.351 148.872 262.152 148.551 261.202 147.91C260.253 147.269 259.652 146.333 259.399 145.101L261.471 144.573C261.668 145.352 262.041 145.937 262.589 146.327C263.144 146.716 263.869 146.911 264.762 146.911C265.78 146.911 266.587 146.691 267.185 146.251C267.789 145.805 268.091 145.271 268.091 144.649C268.091 144.146 267.919 143.725 267.573 143.385C267.228 143.04 266.698 142.782 265.983 142.612L263.616 142.047C262.315 141.733 261.36 141.245 260.749 140.586C260.145 139.919 259.843 139.087 259.843 138.087C259.843 137.27 260.068 136.548 260.518 135.919C260.974 135.291 261.594 134.798 262.377 134.439C263.166 134.081 264.06 133.902 265.058 133.902C266.464 133.902 267.567 134.216 268.369 134.845C269.176 135.473 269.749 136.303 270.088 137.333Z" fill="#54321A"/>
<path d="M278.072 148.91C277.172 148.91 276.355 148.737 275.622 148.391C274.888 148.039 274.306 147.533 273.874 146.873C273.443 146.207 273.227 145.403 273.227 144.46C273.227 143.63 273.387 142.958 273.708 142.443C274.028 141.921 274.457 141.513 274.993 141.217C275.529 140.922 276.121 140.702 276.768 140.557C277.422 140.406 278.078 140.287 278.738 140.199C279.601 140.086 280.3 140.001 280.837 139.945C281.379 139.882 281.774 139.778 282.02 139.633C282.273 139.489 282.399 139.238 282.399 138.879V138.804C282.399 137.874 282.15 137.151 281.65 136.636C281.157 136.12 280.408 135.863 279.403 135.863C278.362 135.863 277.545 136.095 276.953 136.56C276.361 137.025 275.945 137.522 275.705 138.05L273.634 137.296C274.003 136.416 274.497 135.731 275.113 135.241C275.736 134.744 276.414 134.398 277.147 134.204C277.887 134.003 278.614 133.902 279.329 133.902C279.786 133.902 280.31 133.959 280.901 134.072C281.499 134.178 282.076 134.402 282.63 134.741C283.191 135.08 283.657 135.593 284.027 136.278C284.397 136.963 284.582 137.88 284.582 139.03V148.57H282.399V146.609H282.288C282.14 146.924 281.894 147.26 281.549 147.618C281.203 147.976 280.744 148.281 280.171 148.532C279.598 148.784 278.898 148.91 278.072 148.91ZM278.405 146.911C279.268 146.911 279.995 146.738 280.587 146.393C281.185 146.047 281.635 145.601 281.937 145.054C282.245 144.507 282.399 143.932 282.399 143.329V141.293C282.307 141.406 282.103 141.509 281.789 141.604C281.481 141.692 281.123 141.77 280.716 141.839C280.316 141.902 279.924 141.959 279.542 142.009C279.166 142.053 278.861 142.091 278.627 142.122C278.06 142.198 277.529 142.32 277.036 142.49C276.549 142.653 276.155 142.901 275.853 143.235C275.557 143.561 275.409 144.008 275.409 144.573C275.409 145.346 275.689 145.931 276.25 146.327C276.818 146.716 277.536 146.911 278.405 146.911Z" fill="#54321A"/>
<path d="M303.954 129.264H306.247V143.065C306.247 144.297 306.025 145.343 305.581 146.204C305.137 147.065 304.512 147.719 303.704 148.165C302.896 148.611 301.944 148.834 300.847 148.834C299.811 148.834 298.89 148.642 298.082 148.259C297.275 147.869 296.64 147.316 296.177 146.6C295.715 145.883 295.484 145.032 295.484 144.045H297.74C297.74 144.592 297.872 145.07 298.138 145.478C298.409 145.88 298.779 146.195 299.247 146.421C299.716 146.647 300.249 146.76 300.847 146.76C301.506 146.76 302.067 146.619 302.53 146.336C302.992 146.053 303.343 145.638 303.584 145.092C303.83 144.539 303.954 143.863 303.954 143.065V129.264Z" fill="#54321A"/>
<path d="M314.986 148.91C314.086 148.91 313.269 148.737 312.536 148.391C311.802 148.039 311.22 147.533 310.788 146.873C310.357 146.207 310.141 145.403 310.141 144.46C310.141 143.63 310.301 142.958 310.622 142.443C310.942 141.921 311.371 141.513 311.907 141.217C312.443 140.922 313.035 140.702 313.682 140.557C314.336 140.406 314.992 140.287 315.652 140.199C316.515 140.086 317.215 140.001 317.751 139.945C318.293 139.882 318.688 139.778 318.934 139.633C319.187 139.489 319.314 139.238 319.314 138.879V138.804C319.314 137.874 319.064 137.151 318.565 136.636C318.071 136.12 317.322 135.863 316.318 135.863C315.276 135.863 314.459 136.095 313.867 136.56C313.276 137.025 312.859 137.522 312.619 138.05L310.548 137.296C310.918 136.416 311.411 135.731 312.027 135.241C312.65 134.744 313.328 134.398 314.062 134.204C314.801 134.003 315.529 133.902 316.244 133.902C316.7 133.902 317.224 133.959 317.816 134.072C318.414 134.178 318.99 134.402 319.545 134.741C320.106 135.08 320.571 135.593 320.941 136.278C321.311 136.963 321.496 137.88 321.496 139.03V148.57H319.314V146.609H319.203C319.055 146.924 318.808 147.26 318.463 147.618C318.118 147.976 317.658 148.281 317.085 148.532C316.512 148.784 315.812 148.91 314.986 148.91ZM315.319 146.911C316.182 146.911 316.909 146.738 317.501 146.393C318.099 146.047 318.549 145.601 318.851 145.054C319.159 144.507 319.314 143.932 319.314 143.329V141.293C319.221 141.406 319.018 141.509 318.703 141.604C318.395 141.692 318.038 141.77 317.631 141.839C317.23 141.902 316.839 141.959 316.456 142.009C316.08 142.053 315.775 142.091 315.541 142.122C314.974 142.198 314.444 142.32 313.951 142.49C313.464 142.653 313.069 142.901 312.767 143.235C312.471 143.561 312.323 144.008 312.323 144.573C312.323 145.346 312.604 145.931 313.165 146.327C313.732 146.716 314.45 146.911 315.319 146.911Z" fill="#54321A"/>
<path d="M328.957 148.57L324.629 134.09H326.923L329.992 145.176H330.14L333.173 134.09H335.503L338.499 145.139H338.647L341.717 134.09H344.01L339.683 148.57H337.538L334.431 137.446H334.209L331.102 148.57H328.957Z" fill="#54321A"/>
<path d="M351.335 148.91C350.435 148.91 349.618 148.737 348.885 148.391C348.151 148.039 347.569 147.533 347.137 146.873C346.706 146.207 346.49 145.403 346.49 144.46C346.49 143.63 346.65 142.958 346.971 142.443C347.291 141.921 347.72 141.513 348.256 141.217C348.792 140.922 349.384 140.702 350.031 140.557C350.685 140.406 351.341 140.287 352.001 140.199C352.864 140.086 353.563 140.001 354.1 139.945C354.642 139.882 355.037 139.778 355.283 139.633C355.536 139.489 355.662 139.238 355.662 138.879V138.804C355.662 137.874 355.413 137.151 354.913 136.636C354.42 136.12 353.671 135.863 352.666 135.863C351.625 135.863 350.808 136.095 350.216 136.56C349.624 137.025 349.208 137.522 348.968 138.05L346.897 137.296C347.266 136.416 347.76 135.731 348.376 135.241C348.999 134.744 349.677 134.398 350.41 134.204C351.15 134.003 351.877 133.902 352.592 133.902C353.049 133.902 353.573 133.959 354.164 134.072C354.762 134.178 355.339 134.402 355.893 134.741C356.454 135.08 356.92 135.593 357.29 136.278C357.66 136.963 357.844 137.88 357.844 139.03V148.57H355.662V146.609H355.551C355.403 146.924 355.157 147.26 354.812 147.618C354.466 147.976 354.007 148.281 353.434 148.532C352.861 148.784 352.161 148.91 351.335 148.91ZM351.668 146.911C352.531 146.911 353.258 146.738 353.85 146.393C354.448 146.047 354.898 145.601 355.2 145.054C355.508 144.507 355.662 143.932 355.662 143.329V141.293C355.57 141.406 355.366 141.509 355.052 141.604C354.744 141.692 354.386 141.77 353.979 141.839C353.579 141.902 353.187 141.959 352.805 142.009C352.429 142.053 352.124 142.091 351.89 142.122C351.323 142.198 350.792 142.32 350.299 142.49C349.812 142.653 349.418 142.901 349.116 143.235C348.82 143.561 348.672 144.008 348.672 144.573C348.672 145.346 348.952 145.931 349.513 146.327C350.08 146.716 350.799 146.911 351.668 146.911Z" fill="#54321A"/>
<path d="M370.744 148.57H368.34L375.293 129.264H377.66L384.614 148.57H382.21L376.551 132.318H376.403L370.744 148.57ZM371.632 141.029H381.322V143.103H371.632V141.029Z" fill="#54321A"/>
<path d="M389.71 139.86V148.57H387.528V134.09H389.636V136.353H389.821C390.154 135.618 390.659 135.027 391.338 134.581C392.016 134.128 392.891 133.902 393.964 133.902C394.925 133.902 395.767 134.103 396.488 134.505C397.209 134.901 397.77 135.505 398.171 136.315C398.571 137.12 398.772 138.138 398.772 139.37V148.57H396.59V139.52C396.59 138.383 396.3 137.497 395.72 136.862C395.141 136.221 394.346 135.9 393.335 135.9C392.638 135.9 392.016 136.054 391.467 136.362C390.925 136.67 390.496 137.12 390.182 137.71C389.867 138.301 389.71 139.018 389.71 139.86Z" fill="#54321A"/>
<path d="M408.383 148.872C407.199 148.872 406.154 148.567 405.248 147.957C404.342 147.342 403.633 146.474 403.121 145.356C402.61 144.231 402.354 142.901 402.354 141.368C402.354 139.847 402.61 138.527 403.121 137.409C403.633 136.29 404.345 135.426 405.257 134.816C406.17 134.207 407.224 133.902 408.42 133.902C409.344 133.902 410.075 134.059 410.611 134.373C411.154 134.681 411.567 135.033 411.85 135.429C412.14 135.819 412.365 136.139 412.525 136.391H412.71V129.264H414.892V148.57H412.784V146.345H412.525C412.365 146.609 412.137 146.942 411.841 147.345C411.545 147.741 411.123 148.096 410.574 148.41C410.025 148.718 409.295 148.872 408.383 148.872ZM408.679 146.873C409.554 146.873 410.294 146.641 410.898 146.176C411.502 145.704 411.961 145.054 412.275 144.224C412.59 143.389 412.747 142.424 412.747 141.33C412.747 140.249 412.593 139.304 412.285 138.493C411.976 137.676 411.52 137.041 410.916 136.589C410.312 136.13 409.566 135.9 408.679 135.9C407.754 135.9 406.983 136.142 406.367 136.626C405.757 137.104 405.297 137.754 404.989 138.578C404.687 139.395 404.536 140.312 404.536 141.33C404.536 142.361 404.69 143.297 404.998 144.14C405.313 144.975 405.775 145.642 406.385 146.138C407.002 146.628 407.766 146.873 408.679 146.873Z" fill="#54321A"/>
<path d="M423.632 148.91C422.732 148.91 421.915 148.737 421.181 148.391C420.448 148.039 419.865 147.533 419.434 146.873C419.002 146.207 418.786 145.403 418.786 144.46C418.786 143.63 418.947 142.958 419.267 142.443C419.588 141.921 420.016 141.513 420.553 141.217C421.089 140.922 421.681 140.702 422.328 140.557C422.981 140.406 423.638 140.287 424.297 140.199C425.16 140.086 425.86 140.001 426.396 139.945C426.939 139.882 427.333 139.778 427.58 139.633C427.833 139.489 427.959 139.238 427.959 138.879V138.804C427.959 137.874 427.709 137.151 427.21 136.636C426.717 136.12 425.968 135.863 424.963 135.863C423.921 135.863 423.105 136.095 422.513 136.56C421.921 137.025 421.505 137.522 421.265 138.05L419.193 137.296C419.563 136.416 420.056 135.731 420.673 135.241C421.295 134.744 421.973 134.398 422.707 134.204C423.447 134.003 424.174 133.902 424.889 133.902C425.345 133.902 425.869 133.959 426.461 134.072C427.059 134.178 427.635 134.402 428.19 134.741C428.751 135.08 429.217 135.593 429.586 136.278C429.956 136.963 430.141 137.88 430.141 139.03V148.57H427.959V146.609H427.848C427.7 146.924 427.454 147.26 427.108 147.618C426.763 147.976 426.304 148.281 425.731 148.532C425.157 148.784 424.458 148.91 423.632 148.91ZM423.965 146.911C424.828 146.911 425.555 146.738 426.147 146.393C426.745 146.047 427.195 145.601 427.497 145.054C427.805 144.507 427.959 143.932 427.959 143.329V141.293C427.867 141.406 427.663 141.509 427.349 141.604C427.041 141.692 426.683 141.77 426.276 141.839C425.875 141.902 425.484 141.959 425.102 142.009C424.726 142.053 424.421 142.091 424.186 142.122C423.619 142.198 423.089 142.32 422.596 142.49C422.109 142.653 421.715 142.901 421.413 143.235C421.117 143.561 420.969 144.008 420.969 144.573C420.969 145.346 421.249 145.931 421.81 146.327C422.377 146.716 423.095 146.911 423.965 146.911Z" fill="#54321A"/>
<path d="M436.567 129.264V148.57H434.385V129.264H436.567Z" fill="#54321A"/>
<path d="M445.003 148.91C444.103 148.91 443.287 148.737 442.553 148.391C441.819 148.039 441.237 147.533 440.805 146.873C440.374 146.207 440.158 145.403 440.158 144.46C440.158 143.63 440.318 142.958 440.639 142.443C440.96 141.921 441.388 141.513 441.924 141.217C442.461 140.922 443.052 140.702 443.7 140.557C444.353 140.406 445.01 140.287 445.669 140.199C446.532 140.086 447.232 140.001 447.768 139.945C448.311 139.882 448.705 139.778 448.952 139.633C449.204 139.489 449.331 139.238 449.331 138.879V138.804C449.331 137.874 449.081 137.151 448.582 136.636C448.089 136.12 447.34 135.863 446.335 135.863C445.293 135.863 444.476 136.095 443.885 136.56C443.293 137.025 442.877 137.522 442.636 138.05L440.565 137.296C440.935 136.416 441.428 135.731 442.044 135.241C442.667 134.744 443.345 134.398 444.079 134.204C444.818 134.003 445.546 133.902 446.261 133.902C446.717 133.902 447.241 133.959 447.833 134.072C448.431 134.178 449.007 134.402 449.562 134.741C450.123 135.08 450.588 135.593 450.958 136.278C451.328 136.963 451.513 137.88 451.513 139.03V148.57H449.331V146.609H449.22C449.072 146.924 448.825 147.26 448.48 147.618C448.135 147.976 447.676 148.281 447.102 148.532C446.529 148.784 445.829 148.91 445.003 148.91ZM445.336 146.911C446.199 146.911 446.927 146.738 447.518 146.393C448.116 146.047 448.566 145.601 448.868 145.054C449.177 144.507 449.331 143.932 449.331 143.329V141.293C449.238 141.406 449.035 141.509 448.72 141.604C448.412 141.692 448.055 141.77 447.648 141.839C447.247 141.902 446.856 141.959 446.474 142.009C446.098 142.053 445.792 142.091 445.558 142.122C444.991 142.198 444.461 142.32 443.968 142.49C443.481 142.653 443.086 142.901 442.784 143.235C442.488 143.561 442.34 144.008 442.34 144.573C442.34 145.346 442.621 145.931 443.182 146.327C443.749 146.716 444.467 146.911 445.336 146.911Z" fill="#54321A"/>
<path d="M457.938 139.86V148.57H455.756V134.09H457.864V136.353H458.049C458.382 135.618 458.888 135.027 459.566 134.581C460.244 134.128 461.119 133.902 462.192 133.902C463.153 133.902 463.995 134.103 464.716 134.505C465.437 134.901 465.998 135.505 466.399 136.315C466.8 137.12 467 138.138 467 139.37V148.57H464.818V139.52C464.818 138.383 464.528 137.497 463.949 136.862C463.369 136.221 462.574 135.9 461.563 135.9C460.866 135.9 460.244 136.054 459.695 136.362C459.153 136.67 458.724 137.12 458.41 137.71C458.096 138.301 457.938 139.018 457.938 139.86Z" fill="#54321A"/>
</svg>
