<svg width="86" height="17" viewBox="0 0 86 17" fill="none" xmlns="http://www.w3.org/2000/svg">
<path d="M3.04821 13.172L0 3.70624H2.24948L4.48266 10.8925L3.70023 10.8751L6.08012 3.70624H7.97099L10.3346 10.8751L9.55215 10.8925L11.7853 3.70624H14.0348L10.9866 13.172H9.07943L6.66694 5.67247H7.38417L4.93908 13.172H3.04821Z" fill="#54321A"/>
<path d="M17.7396 13.3808C17.1202 13.3808 16.5823 13.2706 16.1259 13.0502C15.6694 12.8298 15.3163 12.5165 15.0663 12.1105C14.8164 11.6929 14.6914 11.2115 14.6914 10.6663C14.6914 10.1443 14.8001 9.68031 15.0174 9.27431C15.2348 8.8567 15.5716 8.5087 16.0281 8.2303C16.4845 7.95189 17.0604 7.75469 17.7559 7.63869L20.6574 7.13408V8.8741L18.1634 9.32651C17.7396 9.40771 17.4245 9.55271 17.218 9.76151C17.0115 9.97032 16.9083 10.2429 16.9083 10.5793C16.9083 10.9041 17.0224 11.1651 17.2506 11.3623C17.4897 11.5479 17.7831 11.6407 18.1308 11.6407C18.5764 11.6407 18.9676 11.5421 19.3045 11.3449C19.6522 11.1361 19.9185 10.8519 20.1032 10.4923C20.2988 10.1327 20.3966 9.73831 20.3966 9.30911V6.87308C20.3966 6.46708 20.2445 6.13067 19.9402 5.86387C19.6468 5.58547 19.2556 5.44626 18.7666 5.44626C18.3101 5.44626 17.9026 5.57967 17.544 5.84647C17.1963 6.10167 16.9409 6.44388 16.7779 6.87308L15.0337 5.96827C15.2076 5.46946 15.4793 5.04026 15.8488 4.68065C16.2291 4.30945 16.6747 4.01945 17.1854 3.81064C17.6962 3.60184 18.2504 3.49744 18.8481 3.49744C19.5762 3.49744 20.2173 3.64244 20.7715 3.93245C21.3258 4.21085 21.755 4.60525 22.0593 5.11566C22.3744 5.61447 22.532 6.20027 22.532 6.87308V13.172H20.5107V11.5537L20.9671 11.5189C20.7389 11.9249 20.4673 12.2671 20.1521 12.5455C19.837 12.8124 19.4784 13.0212 19.0763 13.172C18.6742 13.3112 18.2286 13.3808 17.7396 13.3808Z" fill="#54321A"/>
<path d="M24.6686 13.172V3.70624H26.6736V5.56807L26.5106 5.23746C26.7171 4.66905 27.054 4.23985 27.5213 3.94985C27.9994 3.64824 28.5536 3.49744 29.1839 3.49744C29.8359 3.49744 30.4119 3.64824 30.9118 3.94985C31.4225 4.25145 31.8192 4.67486 32.1017 5.22006C32.3843 5.75367 32.5255 6.37427 32.5255 7.08188V13.172H30.3902V7.62129C30.3902 7.20368 30.3141 6.84408 30.1619 6.54248C30.0098 6.24087 29.7979 6.00887 29.5262 5.84647C29.2654 5.67247 28.9557 5.58547 28.5971 5.58547C28.2493 5.58547 27.9396 5.67247 27.668 5.84647C27.3963 6.00887 27.1844 6.24087 27.0322 6.54248C26.8801 6.84408 26.804 7.20368 26.804 7.62129V13.172H24.6686Z" fill="#54321A"/>
<path d="M38.7976 17C38.1347 17 37.5207 16.884 36.9556 16.652C36.3905 16.42 35.9015 16.0952 35.4885 15.6776C35.0865 15.2716 34.7931 14.7902 34.6083 14.2334L36.597 13.433C36.7274 13.8738 36.9828 14.2276 37.3631 14.4944C37.7543 14.7728 38.2325 14.912 38.7976 14.912C39.2322 14.912 39.6126 14.825 39.9386 14.651C40.2755 14.477 40.5363 14.2218 40.721 13.8854C40.9058 13.5606 40.9981 13.1662 40.9981 12.7021V10.5445L41.4057 11.0665C41.1014 11.6349 40.6939 12.0641 40.1831 12.3541C39.6724 12.6441 39.091 12.7892 38.439 12.7892C37.6131 12.7892 36.8741 12.5861 36.2221 12.1801C35.57 11.7741 35.0593 11.2173 34.6898 10.5097C34.3203 9.80211 34.1356 9.00751 34.1356 8.1259C34.1356 7.23269 34.3203 6.43808 34.6898 5.74207C35.0593 5.04606 35.5646 4.50085 36.2058 4.10645C36.8469 3.70044 37.575 3.49744 38.3901 3.49744C39.0529 3.49744 39.6343 3.64824 40.1342 3.94985C40.645 4.23985 41.0688 4.66326 41.4057 5.22006L41.1122 5.79427V3.70624H43.1335V12.7021C43.1335 13.5258 42.9433 14.2624 42.563 14.912C42.1935 15.5616 41.6828 16.072 41.0307 16.4432C40.3896 16.8144 39.6452 17 38.7976 17ZM38.6998 10.6837C39.1562 10.6837 39.5528 10.5793 39.8897 10.3705C40.2374 10.1501 40.5091 9.84852 40.7047 9.46571C40.9003 9.08291 40.9981 8.6421 40.9981 8.1433C40.9981 7.65609 40.8949 7.22108 40.6884 6.83828C40.4928 6.44388 40.2211 6.13647 39.8734 5.91607C39.5365 5.69567 39.1453 5.58547 38.6998 5.58547C38.2542 5.58547 37.8521 5.69567 37.4935 5.91607C37.1349 6.13647 36.8524 6.44388 36.6459 6.83828C36.4503 7.22108 36.3525 7.65609 36.3525 8.1433C36.3525 8.6305 36.4503 9.06551 36.6459 9.44831C36.8524 9.83112 37.1295 10.1327 37.4772 10.3531C37.8358 10.5735 38.2433 10.6837 38.6998 10.6837Z" fill="#54321A"/>
<path d="M48.665 13.3808C47.7196 13.3808 46.8937 13.143 46.1873 12.6673C45.4918 12.1801 45.0137 11.5247 44.7529 10.7011L46.3503 9.88332C46.5785 10.4169 46.8937 10.8345 47.2958 11.1361C47.7087 11.4377 48.1651 11.5885 48.665 11.5885C49.0562 11.5885 49.366 11.4957 49.5942 11.3101C49.8224 11.1245 49.9365 10.8809 49.9365 10.5793C49.9365 10.3937 49.8876 10.2429 49.7898 10.1269C49.7028 9.99932 49.5779 9.89492 49.4149 9.81371C49.2627 9.72091 49.0943 9.64551 48.9095 9.58751L47.4588 9.15251C46.709 8.9205 46.1384 8.5667 45.7472 8.09109C45.3669 7.61549 45.1767 7.05288 45.1767 6.40328C45.1767 5.82327 45.3125 5.31866 45.5842 4.88946C45.8668 4.44865 46.2525 4.10645 46.7416 3.86285C47.2414 3.61924 47.812 3.49744 48.4531 3.49744C49.2899 3.49744 50.0288 3.71204 50.67 4.14125C51.3112 4.57045 51.7676 5.17366 52.0392 5.95087L50.4092 6.76868C50.257 6.33947 50.0017 5.99727 49.6431 5.74207C49.2844 5.48686 48.8824 5.35926 48.4368 5.35926C48.0782 5.35926 47.7957 5.44626 47.5892 5.62027C47.3827 5.79427 47.2795 6.02047 47.2795 6.29887C47.2795 6.47288 47.3229 6.62368 47.4099 6.75128C47.4968 6.87888 47.6164 6.98328 47.7685 7.06448C47.9315 7.14568 48.1162 7.22108 48.3227 7.29069L49.7409 7.74309C50.469 7.97509 51.0286 8.3231 51.4198 8.7871C51.8219 9.25111 52.0229 9.81952 52.0229 10.4923C52.0229 11.0607 51.8817 11.5653 51.5991 12.0061C51.3166 12.4353 50.9254 12.7718 50.4255 13.0154C49.9256 13.259 49.3388 13.3808 48.665 13.3808Z" fill="#54321A"/>
<path d="M56.9893 13.3808C56.3046 13.3808 55.707 13.2184 55.1962 12.8936C54.6963 12.5687 54.3105 12.1163 54.0389 11.5363C53.7781 10.9563 53.6477 10.2777 53.6477 9.50051V3.70624H55.783V9.30911C55.783 9.70351 55.8537 10.0515 55.9949 10.3531C56.1471 10.6431 56.359 10.8751 56.6307 11.0491C56.9132 11.2115 57.2284 11.2927 57.5761 11.2927C57.9238 11.2927 58.2336 11.2115 58.5052 11.0491C58.7769 10.8751 58.9888 10.6373 59.141 10.3357C59.2931 10.0341 59.3692 9.67451 59.3692 9.25691V3.70624H61.5045V13.172H59.4833V11.3101L59.6626 11.6407C59.4561 12.2207 59.1138 12.6557 58.6356 12.9458C58.1684 13.2358 57.6196 13.3808 56.9893 13.3808Z" fill="#54321A"/>
<path d="M63.6525 13.172V0H65.7879V13.172H63.6525Z" fill="#54321A"/>
<path d="M68.9332 13.172V10.7359H71.0848V13.172H68.9332Z" fill="#FF0000"/>
<path d="M76.9356 13.3808C76.3162 13.3808 75.7782 13.2706 75.3218 13.0502C74.8654 12.8298 74.5122 12.5165 74.2623 12.1105C74.0124 11.6929 73.8874 11.2115 73.8874 10.6663C73.8874 10.1443 73.9961 9.68031 74.2134 9.27431C74.4307 8.8567 74.7676 8.5087 75.224 8.2303C75.6804 7.95189 76.2564 7.75469 76.9519 7.63869L79.8534 7.13408V8.8741L77.3594 9.32651C76.9356 9.40771 76.6204 9.55271 76.414 9.76151C76.2075 9.97032 76.1043 10.2429 76.1043 10.5793C76.1043 10.9041 76.2184 11.1651 76.4466 11.3623C76.6857 11.5479 76.9791 11.6407 77.3268 11.6407C77.7724 11.6407 78.1636 11.5421 78.5004 11.3449C78.8482 11.1361 79.1144 10.8519 79.2992 10.4923C79.4948 10.1327 79.5926 9.73831 79.5926 9.30911V6.87308C79.5926 6.46708 79.4405 6.13067 79.1362 5.86387C78.8428 5.58547 78.4515 5.44626 77.9625 5.44626C77.5061 5.44626 77.0986 5.57967 76.74 5.84647C76.3922 6.10167 76.1369 6.44388 75.9739 6.87308L74.2297 5.96827C74.4036 5.46946 74.6752 5.04026 75.0447 4.68065C75.4251 4.30945 75.8706 4.01945 76.3814 3.81064C76.8921 3.60184 77.4463 3.49744 78.044 3.49744C78.7721 3.49744 79.4133 3.64244 79.9675 3.93245C80.5217 4.21085 80.951 4.60525 81.2552 5.11566C81.5704 5.61447 81.728 6.20027 81.728 6.87308V13.172H79.7067V11.5537L80.1631 11.5189C79.9349 11.9249 79.6632 12.2671 79.3481 12.5455C79.0329 12.8124 78.6743 13.0212 78.2722 13.172C77.8702 13.3112 77.4246 13.3808 76.9356 13.3808Z" fill="#54321A"/>
<path d="M83.8646 13.172V3.70624H86V13.172H83.8646ZM83.8646 2.64483V0.208802H86V2.64483H83.8646Z" fill="#54321A"/>
</svg>
